<svg fill="#d14600" height="68.8" viewBox="0 0 295.11 40.61" width="500" xmlns="http://www.w3.org/2000/svg"><g fill="#fd5300"><path d="m36.86 0h-17.09a19.53 19.53 0 0 0 -.48 39.06h17.57a19.53 19.53 0 1 0 .48-39.06zm-3.71 33.58h-7.35a12.73 12.73 0 0 1 -12.8-12.65v-9.78a12.64 12.64 0 0 1 6.75-11.15v8.27h13.4a12.65 12.65 0 0 1 0 25.3"/><path d="m33 14.92h-13.19v6a6 6 0 0 0 6 6h7.19a6 6 0 0 0 0-12z"/><path d="m64.16 23.62v-18h5.91v6.94h9.19a10.55 10.55 0 1 1 0 21.1h-4.6a10.25 10.25 0 0 1 -10.49-10m5.9-.54a4.69 4.69 0 0 0 4.46 4.88h4.31a5 5 0 0 0 5-4.92 5.08 5.08 0 0 0 -5-5h-8.77zm33.44 10.52a10.55 10.55 0 1 1 0-21.1h6a10.55 10.55 0 0 1 0 21.1zm10.6-10.52a5.08 5.08 0 0 0 -5-5h-5.14a5 5 0 0 0 -.18 10h5.32a5 5 0 0 0 5-5m9.68 0v-10.6h5.91v10.57a5 5 0 0 0 5 5h8.38v-15.58h5.92v21.1h-14.5c-6.44 0-10.71-4.16-10.71-10.52m36.46 10.52h-5.9v-28h5.9zm57.85-10.61v10.61h-5.91v-10.61a5 5 0 0 0 -5-5h-8.4v15.61h-5.9v-21.1h14.49a10.63 10.63 0 0 1 10.69 10.49m3.57-1c0-5.83 4.81-9.46 10.71-9.46h14.88v20.86c0 4.64-2.87 7.21-8.12 7.21h-11.11v-5.34h11.36a1.83 1.83 0 0 0 2-1.7v-2.09h-9c-5.9 0-10.71-3.63-10.71-9.51m19.69 4v-7.9h-8.27c-2.76 0-5 1.18-5 3.9s2.27 4 5 4zm33.38 7.69h-13.1c-6.44 0-10.93-4.16-10.93-10.52a10.27 10.27 0 0 1 10-10.57h4.15c5.79 0 10 3.57 10 9.29v3.48h-18c.65 1.81 2.32 2.88 5 2.88h12.87zm-17.9-13.08h12.18c0-1.6-1.25-2.94-4.17-2.94h-3.53a4.36 4.36 0 0 0 -4.49 2.94m38.3-8v5.55h-5.63a5 5 0 0 0 -5 5v10.48h-5.9v-10.61c0-6.36 4.28-10.52 10.71-10.52z"/><path d="m175.67 12.31a10.68 10.68 0 1 0 0 21.35h14.1v-21.35zm8.21 15.69h-7.78a5 5 0 0 1 -5-5 5.1 5.1 0 0 1 5-5.08h7.77z"/></g></svg>