<?xml version="1.0" encoding="UTF-8" standalone="no"?>
<svg
   class="header__logo-icon"
   height="68.8"
   width="500"
   viewBox="0 0 295.11 40.61"
   style="fill:#d14600;"
   aria-hidden="true"
   alt="Sigla brutarului"
   version="1.1"
   id="svg4"
   sodipodi:docname="Boulanger logo.svg"
   inkscape:version="1.4 (86a8ad7, 2024-10-11)"
   xmlns:inkscape="http://www.inkscape.org/namespaces/inkscape"
   xmlns:sodipodi="http://sodipodi.sourceforge.net/DTD/sodipodi-0.dtd"
   xmlns="http://www.w3.org/2000/svg"
   xmlns:svg="http://www.w3.org/2000/svg">
  <defs
     id="defs4" />
  <sodipodi:namedview
     id="namedview4"
     pagecolor="#ffffff"
     bordercolor="#000000"
     borderopacity="0.25"
     inkscape:showpageshadow="2"
     inkscape:pageopacity="0.0"
     inkscape:pagecheckerboard="0"
     inkscape:deskcolor="#d1d1d1"
     inkscape:zoom="3.546"
     inkscape:cx="250"
     inkscape:cy="34.263959"
     inkscape:window-width="1920"
     inkscape:window-height="1001"
     inkscape:window-x="-9"
     inkscape:window-y="-9"
     inkscape:window-maximized="1"
     inkscape:current-layer="svg4" />
  <path
     class="header__logo-capital"
     d="M36.86,0H19.77a19.53,19.53,0,0,0-.48,39.06H36.86A19.53,19.53,0,1,0,37.34,0h-.48M33.15,33.58H25.8A12.73,12.73,0,0,1,13,20.93V11.15h0A12.64,12.64,0,0,1,19.75,0V8.27h13.4a12.65,12.65,0,0,1,0,25.3h0"
     fill="#D14600"
     id="path1"
     style="fill:#fd5300;fill-opacity:1" />
  <path
     class="header__logo-capital"
     d="M33,14.92H19.81v6a6,6,0,0,0,6,6H33a6,6,0,0,0,0-12h0"
     fill="#D14600"
     id="path2"
     style="fill:#fd5300;fill-opacity:1" />
  <path
     d="M64.16,23.62v-18h5.91v6.94h9.19a10.55,10.55,0,1,1,0,21.1H74.66a10.25,10.25,0,0,1-10.49-10m5.9-.54A4.69,4.69,0,0,0,74.53,28h4.31a5,5,0,0,0,5-4.92,5.08,5.08,0,0,0-5-5H70.07Zm33.44,10.52a10.55,10.55,0,1,1,0-21.1h6a10.55,10.55,0,0,1,0,21.1h-6Zm10.6-10.52a5.08,5.08,0,0,0-5-5h-5.14a5,5,0,0,0-.18,10h5.32a5,5,0,0,0,5-5m9.68,0V12.52h5.91V23.09a5,5,0,0,0,5,5h8.38V12.51H149v21.1h-14.5c-6.44,0-10.71-4.16-10.71-10.52m36.46,10.52h-5.9v-28h5.9ZM218.1,23V33.61h-5.91V23a5,5,0,0,0-5-5h-8.4V33.61h-5.9V12.51h14.49A10.63,10.63,0,0,1,218.07,23M221.64,22c0-5.83,4.81-9.46,10.71-9.46h14.88V33.4c0,4.64-2.87,7.21-8.12,7.21H228V35.27h11.36a1.83,1.83,0,0,0,2-1.7V31.48h-9c-5.9,0-10.71-3.63-10.71-9.51m19.69,4V18.07h-8.27c-2.76,0-5,1.18-5,3.9s2.27,4,5,4Zm33.38,7.69H261.62c-6.44,0-10.93-4.16-10.93-10.52a10.27,10.27,0,0,1,10-10.57h4.15c5.79,0,10,3.57,10,9.29v3.48h-18c.65,1.81,2.32,2.88,5,2.88h12.87Zm-17.9-13.08H269c0-1.6-1.25-2.94-4.17-2.94H261.3a4.36,4.36,0,0,0-4.49,2.94m38.3-8v5.55h-5.63a5,5,0,0,0-5,5V33.61h-5.9V23c0-6.36,4.28-10.52,10.71-10.52Z"
     fill="#D14600"
     id="path3"
     style="fill:#fd5300;fill-opacity:1" />
  <path
     d="M175.67,12.31a10.68,10.68,0,1,0,0,21.35h14.1V12.31ZM183.88,28H176.1a5,5,0,0,1-5-5,5.1,5.1,0,0,1,5-5.08h7.77Z"
     fill="#D14600"
     id="path4"
     style="fill:#fd5300;fill-opacity:1" />
</svg>
