<svg width="181" height="51" viewBox="0 0 181 51" fill="none" xmlns="http://www.w3.org/2000/svg">
<path d="M12.308 46.056C11.2119 45.3662 10.2024 44.6322 9.23504 43.8378C5.94691 41.1349 3.33853 37.9132 1.6995 33.9553C0.257548 30.4721 -0.223102 26.8461 0.0926384 23.1055C0.561222 17.569 2.60851 12.6941 6.31896 8.5553C10.1541 4.27772 14.9284 1.66532 20.6118 0.766359C25.3016 0.0222568 29.8085 0.641672 34.0941 2.70304C38.5989 4.86898 42.0882 8.1571 44.6644 12.4246C46.3557 15.2281 47.4457 18.2548 47.9646 21.4846C48.2119 23.019 48.3447 24.5716 48.2803 26.1262C47.9786 33.4345 44.9479 39.3913 39.3008 44.0108C36.252 46.5025 32.815 48.2542 28.9457 49.0868C26.9487 49.5171 24.9376 49.6639 22.9346 49.131C21.2734 48.6886 19.9521 47.8077 19.3528 46.1083C19.0552 45.2657 19.027 44.3748 19.0109 43.4859C18.9788 41.7423 19.3086 40.0389 19.5881 38.3294C19.9059 36.3827 20.3262 34.4581 20.837 32.5536C20.9919 31.9784 20.8129 31.538 20.4388 31.0976C19.1034 29.5249 18.7234 27.725 19.4111 25.7823C20.0869 23.8717 21.4685 22.6932 23.4715 22.3051C26.2327 21.7702 29.0503 23.8074 29.4807 26.631C29.9171 29.4887 28.3142 31.9644 25.5269 32.7266C24.9617 32.8814 24.6178 33.2313 24.471 33.8005C23.8556 36.1615 23.2946 38.5346 23.0593 40.97C22.9969 41.6216 22.9446 42.2772 23.0009 42.9389C23.0613 43.6327 23.3911 44.1234 23.9924 44.4512C25.0362 45.0183 26.1242 45.0123 27.2302 44.6925C28.815 44.234 30.1302 43.323 31.2806 42.1767C34.2932 39.1741 36.0951 35.528 36.8412 31.363C37.1389 29.6999 37.0665 28.0106 36.9076 26.3313C36.614 23.2101 35.9946 20.1351 35.5984 17.03C35.2203 14.0757 35.0654 11.1114 35.2907 8.13699C35.3711 7.0671 35.5019 5.99921 35.707 4.94339C35.7452 4.74228 35.8035 4.5472 35.4576 4.66184C30.267 6.37528 25.3258 8.58547 20.9416 11.9078C17.1567 14.7756 14.13 18.2689 12.1954 22.645C10.8077 25.7843 10.128 29.0784 10.0294 32.5053C9.8987 37.0142 10.7514 41.3541 12.2114 45.5955C12.2557 45.7242 12.3341 45.8449 12.308 46.0581V46.056ZM26.9909 27.5581C26.9929 26.0678 25.8104 24.8511 24.3484 24.8391C22.9145 24.827 21.6837 26.0699 21.6696 27.538C21.6575 29.0141 22.8561 30.2368 24.3222 30.2429C25.7883 30.2469 26.9869 29.0402 26.9909 27.556V27.5581Z" fill="#1d1c1e"/>
<path d="M67.2825 0.430176V4.50263H64.1392V20.7784H58.848V4.50263H55.7188V0.430176H67.2825Z" fill="#1d1c1e"/>
<path d="M73.4159 0.430176V5.00741C73.8524 4.60318 74.3229 4.30152 74.8297 4.10041C75.3365 3.8993 75.8795 3.79875 76.4567 3.79875C77.3456 3.79875 78.1018 4.026 78.7252 4.47849C79.3487 4.93099 79.7308 5.45186 79.8695 6.04312C80.0083 6.63438 80.0767 7.71232 80.0767 9.27896V20.7804H74.9987V9.03964C74.9987 8.06828 74.9504 7.44284 74.8539 7.16732C74.7573 6.8918 74.5422 6.75303 74.2063 6.75303C73.8966 6.75303 73.6874 6.89582 73.5768 7.1814C73.4682 7.46697 73.4139 8.03209 73.4139 8.87875V20.7824H68.3359V0.430176H73.4139H73.4159Z" fill="#1d1c1e"/>
<path d="M93.3261 12.7341H86.7518V16.342C86.7518 17.0962 86.8061 17.5829 86.9147 17.8001C87.0233 18.0173 87.2325 18.1279 87.5442 18.1279C87.9303 18.1279 88.1877 17.9831 88.3164 17.6935C88.4472 17.4039 88.5115 16.8448 88.5115 16.0162V13.8161H93.3261V15.0489C93.3261 16.0806 93.2617 16.871 93.131 17.424C93.0003 17.977 92.6966 18.5683 92.22 19.1958C91.7433 19.8232 91.136 20.2958 90.404 20.6096C89.6699 20.9233 88.7508 21.0802 87.6447 21.0802C86.5386 21.0802 85.6256 20.9253 84.8031 20.6156C83.9826 20.3059 83.343 19.8795 82.8865 19.3406C82.43 18.7996 82.1143 18.2043 81.9373 17.5547C81.7603 16.9051 81.6738 15.9599 81.6738 14.7211V9.85628C81.6738 8.39824 81.8709 7.2479 82.2651 6.40526C82.6593 5.56261 83.3048 4.91705 84.2018 4.46858C85.0987 4.02011 86.1284 3.79688 87.2948 3.79688C88.7187 3.79688 89.8952 4.06636 90.8203 4.60734C91.7454 5.14833 92.3949 5.86427 92.769 6.7572C93.1411 7.65012 93.3281 8.90504 93.3281 10.522V12.7341H93.3261ZM88.236 10.0192V8.80046C88.236 7.9377 88.1898 7.38063 88.0972 7.12925C88.0047 6.87786 87.8157 6.75116 87.5321 6.75116C87.1802 6.75116 86.963 6.85775 86.8785 7.07093C86.7941 7.2841 86.7518 7.86128 86.7518 8.79845V10.0172H88.236V10.0192Z" fill="#1d1c1e"/>
<path d="M111.817 7.92167H106.526V6.07348C106.526 4.90906 106.476 4.17904 106.375 3.88542C106.275 3.5918 106.035 3.44499 105.659 3.44499C105.331 3.44499 105.11 3.57169 104.994 3.82308C104.877 4.07446 104.817 4.72002 104.817 5.75975V15.5256C104.817 16.4386 104.875 17.0399 104.994 17.3295C105.11 17.6191 105.345 17.7639 105.697 17.7639C106.084 17.7639 106.345 17.601 106.484 17.2732C106.623 16.9454 106.691 16.3099 106.691 15.3627V12.9494H105.623V9.85634H111.819V20.7786H108.493L108.004 19.3205C107.644 19.95 107.188 20.4206 106.639 20.7343C106.09 21.048 105.442 21.2049 104.696 21.2049C103.807 21.2049 102.974 20.9897 102.198 20.5573C101.422 20.125 100.833 19.592 100.43 18.9545C100.028 18.317 99.7768 17.6493 99.6762 16.9494C99.5757 16.2496 99.5254 15.1998 99.5254 13.8001V7.75475C99.5254 5.81003 99.63 4.39825 99.8391 3.5194C100.048 2.63855 100.65 1.8321 101.643 1.10006C102.637 0.366018 103.92 0 105.496 0C107.073 0 108.332 0.317752 109.356 0.955266C110.377 1.59278 111.045 2.34895 111.355 3.22377C111.664 4.0986 111.819 5.37161 111.819 7.03881V7.91966L111.817 7.92167Z" fill="#1d1c1e"/>
<path d="M118.791 4.10049L118.59 6.29459C119.328 4.72393 120.396 3.89134 121.795 3.79883V9.66919C120.864 9.66919 120.183 9.79589 119.746 10.0473C119.31 10.2987 119.042 10.6486 118.942 11.0971C118.841 11.5455 118.791 12.5792 118.791 14.1961V20.7825H113.713V4.10049H118.791Z" fill="#1d1c1e"/>
<path d="M134.428 12.7341H127.853V16.342C127.853 17.0962 127.908 17.5829 128.016 17.8001C128.125 18.0173 128.334 18.1279 128.646 18.1279C129.032 18.1279 129.289 17.9831 129.418 17.6935C129.549 17.4039 129.613 16.8448 129.613 16.0162V13.8161H134.428V15.0489C134.428 16.0806 134.363 16.871 134.233 17.424C134.102 17.977 133.798 18.5683 133.322 19.1958C132.845 19.8232 132.238 20.2958 131.506 20.6096C130.771 20.9233 129.852 21.0802 128.746 21.0802C127.64 21.0802 126.727 20.9253 125.905 20.6156C125.084 20.3059 124.445 19.8795 123.988 19.3406C123.532 18.7996 123.216 18.2043 123.039 17.5547C122.862 16.9051 122.775 15.9599 122.775 14.7211V9.85628C122.775 8.39824 122.972 7.2479 123.367 6.40526C123.761 5.56261 124.406 4.91705 125.303 4.46858C126.2 4.02011 127.23 3.79688 128.396 3.79688C129.82 3.79688 130.997 4.06636 131.922 4.60734C132.847 5.14833 133.496 5.86427 133.871 6.7572C134.243 7.65012 134.43 8.90504 134.43 10.522V12.7341H134.428ZM129.338 10.0192V8.80046C129.338 7.9377 129.291 7.38063 129.199 7.12925C129.106 6.87786 128.917 6.75116 128.634 6.75116C128.282 6.75116 128.065 6.85775 127.98 7.07093C127.896 7.2841 127.853 7.86128 127.853 8.79845V10.0172H129.338V10.0192Z" fill="#1d1c1e"/>
<path d="M147.588 12.7341H141.014V16.342C141.014 17.0962 141.068 17.5829 141.176 17.8001C141.285 18.0173 141.494 18.1279 141.806 18.1279C142.192 18.1279 142.449 17.9831 142.578 17.6935C142.709 17.4039 142.773 16.8448 142.773 16.0162V13.8161H147.588V15.0489C147.588 16.0806 147.523 16.871 147.393 17.424C147.262 17.977 146.958 18.5683 146.482 19.1958C146.005 19.8232 145.398 20.2958 144.666 20.6096C143.932 20.9233 143.013 21.0802 141.906 21.0802C140.8 21.0802 139.887 20.9253 139.065 20.6156C138.244 20.3059 137.605 19.8795 137.148 19.3406C136.692 18.7996 136.376 18.2043 136.199 17.5547C136.022 16.9051 135.936 15.9599 135.936 14.7211V9.85628C135.936 8.39824 136.133 7.2479 136.527 6.40526C136.921 5.56261 137.567 4.91705 138.463 4.46858C139.36 4.02011 140.39 3.79688 141.557 3.79688C142.98 3.79688 144.157 4.06636 145.082 4.60734C146.007 5.14833 146.657 5.86427 147.031 6.7572C147.403 7.65012 147.59 8.90504 147.59 10.522V12.7341H147.588ZM142.498 10.0192V8.80046C142.498 7.9377 142.451 7.38063 142.359 7.12925C142.266 6.87786 142.077 6.75116 141.794 6.75116C141.442 6.75116 141.225 6.85775 141.14 7.07093C141.056 7.2841 141.014 7.86128 141.014 8.79845V10.0172H142.498V10.0192Z" fill="#1d1c1e"/>
<path d="M154.415 4.10055L154.326 5.63702C154.694 5.02364 155.145 4.56511 155.677 4.25741C156.21 3.95173 156.824 3.79688 157.52 3.79688C158.39 3.79688 159.104 4.00201 159.657 4.41227C160.21 4.82253 160.566 5.34139 160.725 5.96483C160.884 6.58826 160.965 7.63001 160.965 9.08805V20.7785H155.887V9.22882C155.887 8.08049 155.848 7.38063 155.774 7.12925C155.7 6.87786 155.488 6.75116 155.145 6.75116C154.785 6.75116 154.557 6.89596 154.465 7.18556C154.372 7.47515 154.326 8.24741 154.326 9.50434V20.7785H149.248V4.10055H154.415Z" fill="#1d1c1e"/>
<path d="M68.2237 36.6281H62.9326V33.0906C62.9326 32.063 62.8763 31.4214 62.7636 31.166C62.651 30.9106 62.4017 30.7839 62.0155 30.7839C61.5791 30.7839 61.3036 30.9388 61.1849 31.2485C61.0683 31.5582 61.008 32.2299 61.008 33.2596V42.7117C61.008 43.7011 61.0663 44.3467 61.1849 44.6484C61.3016 44.95 61.567 45.1008 61.9773 45.1008C62.3876 45.1008 62.6289 44.95 62.7496 44.6463C62.8702 44.3447 62.9326 43.6348 62.9326 42.5166V39.9585H68.2237V40.7509C68.2237 42.8565 68.0749 44.3507 67.7773 45.2316C67.4796 46.1124 66.822 46.8847 65.8044 47.5483C64.7868 48.212 63.5319 48.5418 62.0397 48.5418C60.5474 48.5418 59.2121 48.2603 58.2065 47.6992C57.201 47.1381 56.5353 46.3598 56.2075 45.3683C55.8797 44.3748 55.7168 42.8826 55.7168 40.8876V34.9428C55.7168 33.4768 55.7671 32.3767 55.8676 31.6427C55.9682 30.9086 56.2678 30.2027 56.7666 29.525C57.2653 28.8452 57.9571 28.3123 58.84 27.9221C59.7249 27.532 60.7405 27.3369 61.8888 27.3369C63.4474 27.3369 64.7345 27.6386 65.7481 28.2399C66.7617 28.8432 67.4274 29.5934 67.7471 30.4923C68.0649 31.3913 68.2258 32.791 68.2258 34.6915V36.6241L68.2237 36.6281Z" fill="#1d1c1e"/>
<path d="M81.4605 37.2936V41.3782C81.4605 42.8784 81.3841 43.9785 81.2332 44.6783C81.0824 45.3782 80.7606 46.0318 80.2659 46.6392C79.7712 47.2465 79.1357 47.695 78.3614 47.9846C77.5871 48.2742 76.6962 48.419 75.6907 48.419C74.5685 48.419 73.6172 48.2943 72.8369 48.0489C72.0566 47.8016 71.4513 47.4295 71.0209 46.9308C70.5885 46.432 70.2809 45.8287 70.0978 45.1208C69.9128 44.4129 69.8203 43.351 69.8203 41.9352V37.6617C69.8203 36.1111 69.9872 34.9004 70.3231 34.0296C70.6589 33.1588 71.2623 32.459 72.1331 31.9301C73.0039 31.4011 74.12 31.1377 75.4775 31.1377C76.6178 31.1377 77.5952 31.3066 78.4117 31.6465C79.2282 31.9864 79.8597 32.4288 80.3041 32.9718C80.7486 33.5168 81.0522 34.0779 81.2151 34.6571C81.378 35.2363 81.4605 36.1151 81.4605 37.2977V37.2936ZM76.3825 36.0367C76.3825 35.182 76.3362 34.643 76.2437 34.4218C76.1512 34.2006 75.9541 34.088 75.6525 34.088C75.3508 34.088 75.1497 34.1986 75.0491 34.4218C74.9486 34.643 74.8983 35.182 74.8983 36.0367V43.5662C74.8983 44.3546 74.9486 44.8674 75.0491 45.1067C75.1497 45.346 75.3468 45.4647 75.6404 45.4647C75.934 45.4647 76.1412 45.3561 76.2377 45.1369C76.3342 44.9197 76.3825 44.4491 76.3825 43.7291V36.0367Z" fill="#1d1c1e"/>
<path d="M88.1483 31.4374L88.0599 33.0242C88.454 32.3947 88.9226 31.9221 89.4676 31.6083C90.0126 31.2946 90.632 31.1357 91.3279 31.1357C92.6854 31.1357 93.7532 31.7652 94.5335 33.0242C94.9619 32.3947 95.4426 31.9221 95.9795 31.6083C96.5165 31.2946 97.1118 31.1357 97.7654 31.1357C98.6281 31.1357 99.3421 31.3449 99.9092 31.7652C100.474 32.1835 100.836 32.6984 100.997 33.3057C101.156 33.9131 101.237 34.9005 101.237 36.266V48.1194H96.3093V37.2474C96.3093 35.8236 96.2611 34.9407 96.1645 34.6008C96.068 34.261 95.8448 34.092 95.4928 34.092C95.1409 34.092 94.8996 34.259 94.795 34.5948C94.6904 34.9307 94.6381 35.8135 94.6381 37.2474V48.1194H89.711V37.523C89.711 35.8879 89.6707 34.9085 89.5923 34.5807C89.5119 34.2529 89.2927 34.09 88.9327 34.09C88.7054 34.09 88.5144 34.1765 88.3535 34.3474C88.1946 34.5184 88.1061 34.7296 88.09 34.9769C88.0739 35.2243 88.0639 35.7492 88.0639 36.5536V48.1174H83.1367V31.4374H88.1524H88.1483Z" fill="#1d1c1e"/>
<path d="M108.145 31.4374L108.056 32.9115C108.509 32.3163 109.008 31.8698 109.553 31.5762C110.098 31.2826 110.693 31.1357 111.339 31.1357C112.127 31.1357 112.807 31.3469 113.382 31.7712C113.955 32.1936 114.313 32.6823 114.456 33.2353C114.599 33.7884 114.669 34.7275 114.669 36.0508V43.0776C114.669 44.5939 114.578 45.6739 114.399 46.3134C114.218 46.955 113.85 47.4658 113.293 47.8479C112.736 48.23 112.063 48.419 111.276 48.419C110.647 48.419 110.066 48.2722 109.529 47.9786C108.992 47.685 108.503 47.2486 108.058 46.6694V50.4945H102.98V31.4394H108.147L108.145 31.4374ZM109.591 36.2902C109.591 35.2585 109.553 34.635 109.478 34.4178C109.402 34.2006 109.193 34.09 108.849 34.09C108.505 34.09 108.298 34.2167 108.201 34.4681C108.105 34.7195 108.056 35.3268 108.056 36.2902V43.2043C108.056 44.2098 108.107 44.8393 108.207 45.0907C108.308 45.3421 108.525 45.4688 108.861 45.4688C109.197 45.4688 109.39 45.3541 109.47 45.1229C109.551 44.8916 109.589 44.3325 109.589 43.4456V36.2942L109.591 36.2902Z" fill="#1d1c1e"/>
<path d="M120.878 37.897H116.113V36.7789C116.113 35.4877 116.262 34.4943 116.56 33.7944C116.857 33.0945 117.455 32.4771 118.352 31.9402C119.249 31.4032 120.413 31.1357 121.847 31.1357C123.564 31.1357 124.86 31.4394 125.73 32.0468C126.601 32.6541 127.126 33.4002 127.301 34.2851C127.476 35.17 127.564 36.99 127.564 39.7472V48.1194H122.625V46.6332C122.315 47.2285 121.915 47.6769 121.425 47.9746C120.934 48.2722 120.351 48.421 119.671 48.421C118.782 48.421 117.968 48.1717 117.225 47.6729C116.483 47.1742 116.113 46.0821 116.113 44.3989V43.0293C116.113 41.7804 116.31 40.9297 116.705 40.4772C117.099 40.0247 118.074 39.4958 119.633 38.8925C121.3 38.2389 122.193 37.7985 122.309 37.5732C122.426 37.346 122.486 36.8854 122.486 36.1896C122.486 35.3188 122.422 34.7497 122.291 34.4862C122.161 34.2228 121.945 34.09 121.644 34.09C121.3 34.09 121.087 34.2006 121.002 34.4239C120.918 34.6451 120.876 35.2223 120.876 36.1514V37.899L120.878 37.897ZM122.486 40.1856C121.674 40.7809 121.201 41.2797 121.073 41.6819C120.944 42.0841 120.878 42.6633 120.878 43.4175C120.878 44.2802 120.934 44.8373 121.046 45.0887C121.159 45.3401 121.384 45.4668 121.718 45.4668C122.052 45.4668 122.243 45.3682 122.34 45.1711C122.436 44.974 122.484 44.4572 122.484 43.6186V40.1876L122.486 40.1856Z" fill="#1d1c1e"/>
<path d="M140.851 31.4374V44.2842C140.851 46.0198 140.81 47.14 140.732 47.6468C140.651 48.1536 140.37 48.6905 139.883 49.2556C139.397 49.8208 138.721 50.2531 137.854 50.5508C136.987 50.8484 135.895 50.9972 134.58 50.9972C132.963 50.9972 131.664 50.7217 130.682 50.1747C129.701 49.6257 129.194 48.5477 129.162 46.9389H134.089C134.089 47.6769 134.357 48.045 134.894 48.045C135.28 48.045 135.535 47.9323 135.66 47.7051C135.787 47.4778 135.849 47.0052 135.849 46.2833V45.0243C135.413 45.4185 134.954 45.7181 134.473 45.9192C133.991 46.1204 133.486 46.2209 132.959 46.2209C132.046 46.2209 131.294 46.0359 130.703 45.6679C130.111 45.2998 129.707 44.8152 129.49 44.2159C129.273 43.6166 129.162 42.7638 129.162 41.6578V35.5983C129.162 34.0136 129.448 32.8753 130.017 32.1795C130.586 31.4837 131.455 31.1357 132.619 31.1357C133.257 31.1357 133.836 31.2665 134.361 31.5259C134.884 31.7853 135.352 32.1775 135.762 32.6963L136.127 31.4354H140.853L140.851 31.4374ZM135.76 35.8618C135.76 35.0996 135.716 34.6129 135.628 34.4038C135.539 34.1946 135.344 34.09 135.043 34.09C134.741 34.09 134.542 34.2087 134.421 34.448C134.3 34.6873 134.238 35.1579 134.238 35.8618V41.4687C134.238 42.2148 134.284 42.6995 134.377 42.9207C134.469 43.1419 134.662 43.2546 134.956 43.2546C135.292 43.2546 135.509 43.1198 135.61 42.8523C135.71 42.5849 135.76 41.9775 135.76 41.0303V35.8638V35.8618Z" fill="#1d1c1e"/>
<path d="M147.827 31.4375L147.738 32.9739C148.106 32.3606 148.557 31.902 149.09 31.5943C149.623 31.2886 150.236 31.1338 150.932 31.1338C151.803 31.1338 152.516 31.3389 153.07 31.7492C153.623 32.1594 153.979 32.6783 154.137 33.3017C154.296 33.9252 154.377 34.9669 154.377 36.425V48.1154H149.299V36.5637C149.299 35.4154 149.261 34.7155 149.186 34.4641C149.112 34.2128 148.901 34.0861 148.557 34.0861C148.197 34.0861 147.969 34.2309 147.877 34.5205C147.784 34.8101 147.738 35.5823 147.738 36.8392V48.1134H142.66V31.4334H147.827V31.4375Z" fill="#1d1c1e"/>
<path d="M167.611 37.2936V41.3782C167.611 42.8784 167.534 43.9785 167.384 44.6783C167.233 45.3782 166.911 46.0318 166.416 46.6392C165.922 47.2465 165.286 47.695 164.512 47.9846C163.738 48.2742 162.847 48.419 161.841 48.419C160.719 48.419 159.768 48.2943 158.987 48.0489C158.207 47.8016 157.602 47.4295 157.171 46.9308C156.739 46.432 156.431 45.8287 156.248 45.1208C156.063 44.4129 155.971 43.351 155.971 41.9352V37.6617C155.971 36.1111 156.138 34.9004 156.473 34.0296C156.809 33.1588 157.413 32.459 158.283 31.9301C159.154 31.4011 160.27 31.1377 161.628 31.1377C162.768 31.1377 163.746 31.3066 164.562 31.6465C165.379 31.9864 166.01 32.4288 166.455 32.9718C166.899 33.5168 167.203 34.0779 167.366 34.6571C167.528 35.2363 167.611 36.1151 167.611 37.2977V37.2936ZM162.533 36.0367C162.533 35.182 162.487 34.643 162.394 34.4218C162.302 34.2006 162.105 34.088 161.803 34.088C161.501 34.088 161.3 34.1986 161.2 34.4218C161.099 34.643 161.049 35.182 161.049 36.0367V43.5662C161.049 44.3546 161.099 44.8674 161.2 45.1067C161.3 45.346 161.497 45.4647 161.791 45.4647C162.084 45.4647 162.292 45.3561 162.388 45.1369C162.485 44.9197 162.533 44.4491 162.533 43.7291V36.0367Z" fill="#1d1c1e"/>
<path d="M174.45 31.4375L174.361 32.9739C174.729 32.3606 175.18 31.902 175.713 31.5943C176.246 31.2886 176.859 31.1338 177.555 31.1338C178.426 31.1338 179.14 31.3389 179.693 31.7492C180.246 32.1594 180.602 32.6783 180.76 33.3017C180.919 33.9252 181 34.9669 181 36.425V48.1154H175.922V36.5637C175.922 35.4154 175.884 34.7155 175.809 34.4641C175.735 34.2128 175.524 34.0861 175.18 34.0861C174.82 34.0861 174.592 34.2309 174.5 34.5205C174.407 34.8101 174.361 35.5823 174.361 36.8392V48.1134H169.283V31.4334H174.45V31.4375Z" fill="#1d1c1e"/>
</svg>
