<svg fill="none" height="101" viewBox="0 0 440 101" width="440" xmlns="http://www.w3.org/2000/svg"><path d="m50.4443 0c27.8565.0000214 50.4447 22.5879 50.4447 50.4443 0 27.8565-22.5882 50.4447-50.4447 50.4447-27.8564 0-50.44427861-22.5882-50.4443-50.4447 0-27.8564 22.5879-50.4443 50.4443-50.4443zm123.3087 35.0303c5.185 0 10.004 1.5666 14.012 4.25v-2.5684c0-.3081.252-.5604.56-.5605h10.089c.308 0 .56.2524.561.5605v47.082c-.001.3081-.253.5606-.561.5606h-5.044c-2.325 0-4.319-1.4143-5.168-3.4297-4.093 2.8663-9.074 4.5497-14.449 4.5498-13.928 0-25.223-11.2934-25.223-25.2217 0-13.9282 11.295-25.2226 25.223-25.2226zm83.513-18.4961c.308 0 .56.2524.56.5605v66.6992c0 .3082-.252.5606-.56.5606h-5.044c-2.325 0-4.319-1.4143-5.168-3.4297-4.093 2.8663-9.074 4.5498-14.45 4.5498-13.928 0-25.222-11.2934-25.222-25.2217 0-13.9282 11.294-25.2226 25.222-25.2226 5.185 0 10.004 1.5666 14.012 4.25v-22.1856c0-.308.253-.5604.561-.5605zm154.626 18.6504c15.217-1.6815 28.094 10.1873 28.094 25.0683h.014c0 1.5694-.154 3.0968-.42 4.5821-.056.2662-.294.4618-.56.4619h-36.46c-.407 0-.687.4208-.519.7851 2.2 4.8203 7.063 8.1836 12.724 8.1836 2.368-.0001 4.596-.5891 6.557-1.626 2.228-1.1768 4.946-.8683 6.726.9112l4.134 4.1338c.224.2242.224.5884 0 .8125-4.526 4.3157-10.664 6.9774-17.417 6.9775-14.881 0-26.75-12.8766-25.069-28.0937 1.275-11.5742 10.635-20.9212 22.196-22.1963zm-282.979 2.2988c0-.3923.393-.6587.757-.5186 1.513.5605 3.139.8682 4.849.8682 1.709 0 3.334-.3078 4.847-.8682.365-.1261.757.1263.757.5186v46.2959c0 .3223-.252.5889-.561.5889h-10.075c-.308-.0003-.574-.2803-.574-.6162zm190.567 0c0-.3923.393-.6587.757-.5186 1.514.5605 3.14.8682 4.849.8682 1.709-.0001 3.334-.3078 4.848-.8682.364-.1261.756.1263.756.5186v46.2959c0 .3223-.252.5889-.56.5889h-10.075c-.308-.0003-.574-.2803-.575-.6162zm-48.047-1.332c2.269.0001 4.329 1.3735 5.184 3.4892l12.036 29.5664 12.037-29.5664c.855-2.1017 2.901-3.4892 5.185-3.4892h7.16c.392.0002.673.4072.519.7715l-19.156 47.081c-.084.2101-.294.3506-.518.3506h-10.453c-.224-.0001-.435-.1405-.519-.3506l-19.154-47.081c-.154-.3644.126-.7715.518-.7715zm110.262 0c.308 0 .561.2524.561.5605v2.4248c0 1.8775-.631 3.6994-1.794 5.1846l-23.498 29.9443h26.413c.308.0002.561.2524.561.5606v8.9677c-.001.3081-.253.5604-.561.5606h-42.037c-.308 0-.561-.2525-.561-.5606v-2.4248c0-1.8775.631-3.6993 1.794-5.1845l23.498-29.9444h-26.413c-.308 0-.56-.2523-.56-.5605v-8.9678c0-.3081.252-.5605.56-.5605zm-313.2731 27.3945c-5.5769.6025-11.6441.9248-17.9776.9248-6.3334 0-12.3867-.3363-17.9775-.9248-3.1107-.3363-4.9187 3.3068-2.8311 5.6328 5.1145 5.703 12.5414 9.2901 20.8086 9.2901 8.2673-.0001 15.6801-3.5871 20.8086-9.2901 2.0876-2.312.2796-5.9691-2.831-5.6328zm105.3311-17.3057c-7.735 0-14.013 6.2779-14.013 14.0127s6.278 14.0127 14.013 14.0127c7.735-.0002 14.012-6.278 14.012-14.0127 0-7.7346-6.277-14.0125-14.012-14.0127zm58.851 0c-7.734 0-14.012 6.2779-14.012 14.0127s6.278 14.0127 14.012 14.0127c7.735-.0001 14.012-6.278 14.012-14.0127s-6.277-14.0125-14.012-14.0127zm182.161 0c-5.647 0-10.51 3.3634-12.724 8.1836-.168.3643.112.7842.519.7842h24.409c.406 0 .686-.4199.518-.7842-2.2-4.8201-7.076-8.1834-12.722-8.1836zm-280.246-30.8271c4.643.0002 8.407 3.7651 8.407 8.4082 0 4.6429-3.764 8.407-8.407 8.4072-4.644 0-8.408-3.7641-8.409-8.4072 0-4.6433 3.765-8.4082 8.409-8.4082zm190.567 0c4.643.0002 8.407 3.7651 8.407 8.4082 0 4.6429-3.764 8.407-8.407 8.4072-4.643 0-8.408-3.7641-8.408-8.4072 0-4.6433 3.765-8.4082 8.408-8.4082z" fill="#3be1a4"/></svg>