<svg enable-background="new 0 0 140 60" viewBox="0 0 140 60" xmlns="http://www.w3.org/2000/svg"><g fill="#111532"><path d="m76.5 8.3c-.6-1-1.2-.9-1.7-.9h-7.3c-.6 0-.9-.1-.5.7.2.5 1.3 2.5 1.3 2.5.2.5.1.5-.1.9-.2.3-12.7 21.3-13.8 23-.9 1.4-1.1 1.7.2 1.7h1.7c.8 0 .9 0 1.8-1.5.5-.8 4.2-6.8 4.2-6.8h14.5c.4 0 .6.3.7.5.9 1.7 2.3 4.3 3.2 6.1.6 1.1 1 1.7 1.8 1.7h7.3c1.4 0 1.3 0 .3-1.9-1.4-2.6-11.7-22.4-13.6-26m-12.8 16.6 5.9-10.1c.5-1 .5-.8.9 0 .2.4 5.3 10 5.3 10z"/><path d="m33.8 7.4h-5.2c-4 3.1-4.1 3.1-18.6 14.1v-13.4c0-.4-.4-.8-.8-.8h-7.4c-.4.1-.8.4-.8.8v27.1c0 .4.4.8.8.8h7.5c.4 0 .8-.4.8-.8v-11.6c2.2 2.2 14.1 12.5 14.1 12.5h9.8c.7 0 .7-.4.1-.9-8.8-7.5-13.6-11.6-15.4-13.2-.8-.7-1.3-.9-.6-1.5.9-.7 15.5-12.1 15.8-12.5.4-.5-.1-.6-.1-.6"/><path d="m47.7 7.4h-7.4c-.5 0-.8.4-.8.8v27.1c0 .4.4.8.8.8h7.4c.5 0 .8-.4.8-.8v-27.2c.1-.4-.3-.7-.8-.7"/><path d="m138.4 7.4h-7.4c-.5 0-.8.4-.8.8v27.1c0 .4.4.8.8.8h7.4c.5 0 .8-.4.8-.8v-27.2c.1-.4-.3-.7-.8-.7"/><path d="m117.5 20.8c1.3-.6 6.5-1 6.5-6.7 0-6.6-7.2-6.6-8.9-6.7l-18.1-.1c-.4 0-.8.4-.8.8v27.2c0 .4.4.8.8.8h16.2c2.6 0 11.7-.9 12-7.7.2-6.1-6.4-7.1-7.7-7.6m-11.5-1.2v-8.7-.5h3.1.5c3.6 0 5.2 2.3 5.2 4.8s-1.9 4.9-5.2 4.8h-.5-3.1zm4.2 14.3h-.6-3.6v-.6-10.1-.6h3.6.6c4.3 0 6.2 2.7 6.2 5.6 0 3-2.3 5.7-6.2 5.7"/><path d="m1.1 40h1v10.5h-1z"/><path d="m11.8 50.5h-1v-1.4c-.8 1.3-2.2 1.5-3 1.5-2.4 0-4.2-1.8-4.2-4.1 0-2.1 1.6-4 4.2-4 .8 0 2.2.3 3 1.6v-1.4h1zm-4.1-.7c1.7 0 3.1-1.3 3.1-3.1 0-1.7-1.3-3.2-3.1-3.2-1.7 0-3.2 1.2-3.2 3.2.1 1.7 1.3 3.1 3.2 3.1z"/><path d="m18.5 43.6c.4-.7 1.2-1.1 2.1-1.1 1.1 0 2.1.5 2.6 1.5.6-1 1.5-1.5 2.6-1.5 1.8 0 3.1 1.3 3.1 3.3v4.6h-1v-4.4c0-1.7-.8-2.6-2.1-2.6s-2.1.9-2.1 2.6v4.5h-1v-4.5c0-1.7-.8-2.6-2.1-2.6s-2.1.9-2.1 2.6v4.5h-1v-7.7h1z"/><path d="m34.4 42.6c2.3 0 4.1 1.9 4.1 4.1 0 2.1-1.7 4.1-4.1 4.1-2.3 0-4-1.9-4-4 0-2.6 2-4.2 4-4.2zm0 7.2c1.5 0 3.1-1.2 3.1-3.2s-1.7-3.1-3.1-3.1-3.1 1.2-3.1 3.2c.1 1.7 1.5 3.1 3.1 3.1z"/><path d="m47.8 50.5h-1v-1.4c-.8 1.2-2.2 1.5-3 1.5-2.4 0-4.2-1.8-4.2-4.1 0-2.1 1.6-4 4.2-4 .8 0 2.2.3 3 1.5v-4h1zm-4.1-.7c1.7 0 3.1-1.3 3.1-3.1 0-1.7-1.3-3.2-3.1-3.2-1.7 0-3.2 1.2-3.2 3.2.1 1.7 1.3 3.1 3.2 3.1z"/><path d="m50.3 47c.1 1.5 1.5 2.8 3 2.8 1.4 0 2.4-.9 2.8-1.8h1c-.5 1.5-2 2.7-3.8 2.7-2.2 0-4-1.8-4-4s1.8-4 4-4.1c1.7 0 2.9 1 3.4 2 .5.7.6 1.5.6 2.2v.3h-7zm6-.9c-.3-1.8-1.8-2.6-3-2.6s-2.7.8-3 2.6z"/><path d="m70.6 50.5h-1v-1.4c-.8 1.3-2.2 1.5-3 1.5-2.4 0-4.2-1.8-4.2-4.1 0-2.1 1.6-4 4.2-4 .8 0 2.2.3 3 1.6v-1.4h1zm-4.1-.7c1.7 0 3.1-1.3 3.1-3.1 0-1.7-1.3-3.2-3.1-3.2-1.7 0-3.2 1.2-3.2 3.2.1 1.7 1.3 3.1 3.2 3.1zm1.7-8.9-.5.8-2.8-1.5.5-.8z"/><path d="m76.2 42.7h1v1.4c.9-1.3 2.2-1.6 3-1.6 2.5 0 4.2 2 4.2 4 0 2.2-1.7 4.1-4.2 4.1-.8 0-2.1-.3-3-1.5v4.1h-1zm4.1.7c-1.8 0-3.1 1.5-3.1 3.2 0 1.8 1.4 3.1 3.1 3.1 1.9 0 3.2-1.4 3.2-3.1-.1-1.9-1.5-3.2-3.2-3.2z"/><path d="m86.5 47c.1 1.5 1.5 2.8 3 2.8 1.4 0 2.4-.9 2.8-1.8h1c-.5 1.5-2 2.7-3.8 2.7-2.2 0-4-1.8-4-4s1.8-4 4-4.1c1.7 0 2.9 1 3.4 2 .5.7.6 1.5.6 2.2v.3h-7zm6.1-.9c-.3-1.8-1.8-2.6-3-2.6s-2.7.8-3 2.6z"/><path d="m96 43.6h-1.6v-.9h1.6v-2.7h1v2.7h1.8v.9h-1.8v6.8h-1z"/><path d="m99.9 40h1v1.8h-1zm0 2.7h1v7.7h-1z"/><path d="m103.6 43.6h-1.6v-.9h1.6v-2.7h1v2.7h1.9v.9h-1.9v6.8h-1z"/><path d="m107.9 48.2c0 1.5 1 1.6 1.4 1.6.9 0 1.4-.6 1.4-1.4 0-1.1-1-1.3-1.5-1.5-.8-.3-2-.7-2-2.1 0-1.1.8-2.1 2.2-2.1 1.1 0 2.1.9 2.1 2.1h-1c-.1-.9-.7-1.2-1.2-1.2-.8 0-1.2.6-1.2 1.2 0 .8.8 1.1 1.4 1.3.9.3 2.2.8 2.2 2.4 0 1.3-.8 2.4-2.4 2.4-1.1 0-2.4-.7-2.4-2.4v-.1h1z"/><path d="m116.8 42.7h1v1.4c.9-1.3 2.2-1.6 3-1.6 2.5 0 4.2 2 4.2 4 0 2.2-1.7 4.1-4.2 4.1-.8 0-2.1-.3-3-1.5v4.1h-1zm4.1.7c-1.8 0-3.1 1.5-3.1 3.2 0 1.8 1.4 3.1 3.1 3.1 1.9 0 3.2-1.4 3.2-3.1-.1-1.9-1.5-3.2-3.2-3.2z"/><path d="m126.5 42.7h1v1.1c.5-1.1 1.3-1.3 2.2-1.3v1c-.7.1-1.3.3-1.7.8-.3.4-.5 1-.5 1.6v4.5h-1z"/><path d="m130.7 40h1v1.8h-1zm0 2.7h1v7.7h-1z"/><path d="m135.5 46.5-2.6-3.8h1.2l2 3 2-3h1.2l-2.6 3.8 2.6 3.9h-1.2l-2-3.1-2 3.1h-1.2z"/></g></svg>