<svg height="600" viewBox="0 0 600 600" width="600" xmlns="http://www.w3.org/2000/svg"><path d="m0 0h600v600h-600z" fill="#005892" stroke-width="7.59494"/><rect fill="#fff" height="159.03798" rx="12.759493" stroke-width="7.59494" width="159.03798" x="220.48102" y="111.56962"/><path d="m44.05 17.65 2.24 2.33-3.18.81z" fill="#005891" transform="scale(7.5949367)"/><path d="m357.94937 191.08861a57.64557 57.64557 0 0 0 -10.17722-32.81013l-5.16456 1.97468a56.050633 56.050633 0 0 1 10.25317 30.83545 53.164557 53.164557 0 0 1 -45.56962 52.32911 210.1519 210.1519 0 0 1 -1.74684-104.81013 55.443038 55.443038 0 0 1 19.74684 6l1.29114-4.86075a57.56962 57.56962 0 0 0 -19.74684-6.1519 150.68354 150.68354 0 0 1 8.12659-22.02532h-7.59494a164.05063 164.05063 0 0 0 -7.59494 21.64557 57.949367 57.949367 0 0 0 0 115.82278h1.97469c1.97468 7.0633 4.25316 14.27849 7.06329 21.64557h7.06329c-2.88608-7.59493-5.39241-15.18987-7.59494-22.25316a57.949367 57.949367 0 0 0 49.67089-57.34177z" fill="#005891" stroke-width="7.59494"/><g fill="#fff"><path d="m298.63291 130.40506h-7.06329" stroke-width="7.59494"/><path d="m16.25 41.52h2.9l1.92 5.81 1.85-5.81h2.91l1.05 10.07h-2.91l-.43-5.04-1.49 5.04h-2.09l-1.49-5.04-.59 5.04h-.21-2.66z" transform="scale(7.5949367)"/><path d="m35.34 49.06h-4.57v-1.35h3.46v-2.11h-3.52v-1.52h4.63v-2.56h-7.41v10.07h7.41z" transform="scale(7.5949367)"/><path d="m53.19 49.06h-4.58v-1.35h3.46v-2.11h-3.52v-1.52h4.64v-2.56h-7.42v10.07h7.42z" transform="scale(7.5949367)"/><path d="m39.11 51.59h2.79v-7.51h2.47v-2.56h-7.79v2.56h2.53z" transform="scale(7.5949367)"/><path d="m448.10127 314.65823a37.974684 37.974684 0 1 0 37.97468 37.97468 37.974684 37.974684 0 0 0 -37.97468-37.97468zm0 57.49367a19.443038 19.443038 0 1 1 19.44303-19.44304 19.443038 19.443038 0 0 1 -19.44303 19.44304z" stroke-width="7.59494"/><path d="m17.77 61.11h3.12v-1.95h-3.12v-1.97h4.04v-2.45h-6.8v9.56h2.76z" transform="scale(7.5949367)"/><path d="m213.56962 458.81013s10.93671-1.21519 10.93671-21.18988a19.518987 19.518987 0 0 0 -18.83544-21.87341h-34.86076v72.60759h17.6962v-26.73418h6.53164l11.16456 26.73418h20.88608zm-11.8481-11.54431h-13.51899v-17.46835h13.51899a9.4936709 9.4936709 0 0 1 0 17.46835z" stroke-width="7.59494"/><path d="m274.02532 415.74684h-16.25317l-27.41772 72.60759h20.73418l5.3924-13.51899h19.97469l4.55696 13.51899h19.82278zm-15.18988 45.11392 6.98734-19.51899 6.98735 19.51899z" stroke-width="7.59494"/><path d="m42.33 59.16 3.43 5.14h2.21v-9.56h-2.49v5.59l-3.18-5.59h-2.42v9.56h2.45z" transform="scale(7.5949367)"/><path d="m418.25316 465.03797a18.379747 18.379747 0 1 1 -.98734-26.43038l11.8481-13.29113a36.075949 36.075949 0 1 0 0 53.77215z" stroke-width="7.59494"/><path d="m63.99 61.9h-4.35v-1.28h3.29v-2.01h-3.35v-1.44h4.41v-2.44h-7.05v9.58h7.05z" transform="scale(7.5949367)"/></g></svg>