<svg enable-background="new 0 0 652 652" viewBox="0 0 652 652" xmlns="http://www.w3.org/2000/svg"><g fill="#231c34"><path d="m306.5 452.7h6.6c-1 2.1-2.9 3.1-5.8 3.1-3.7 0-6.5-1.8-6.5-5.2 0-3.6 3.4-5.2 6.5-5.2 2.3 0 4.1.8 5.6 2.3l.2.2 2.8-1.4-.3-.3c-2.1-2.4-4.8-3.6-8.1-3.6-5.3 0-9.8 3.1-9.8 8s4.4 8 9.6 8c4.8 0 9.5-2.6 9.5-8.2v-.5h-10.4v2.8z"/><path d="m273.3 454.5-10.6-11.4h-3.4v15.1h3v-11.4l10.6 11.4h3.4v-15.1h-3z"/><path d="m202.7 443.1h-3v15.1h14.2v-2.8h-11.2z"/><path d="m441.3 455.4v-3.7h8.5v-2.7h-8.5v-3.1h12.2v-2.8h-15.2v15.1h15.8v-2.8z"/><path d="m234.1 443.1h3v15.1h-3z"/><path d="m413.1 443.1h3v15.1h-3z"/><path d="m391.9 448c0-3.2-2.3-4.9-5.2-4.9h-11.7v15.1h3v-5.5h6.8l3.9 5.5h3.5l-3.9-5.7c1.9-.4 3.6-1.9 3.6-4.5m-13.9 1.9v-4h8.1c2.4 0 2.7 1.2 2.7 2.1 0 .8-.3 1.9-2.5 1.9z"/><path d="m341.3 451.7h8.5v-2.7h-8.5v-3.1h12.2v-2.8h-15.2v15.1h15.8v-2.8h-12.8z"/><path d="m235.8 342.2c-14.5 0-28.2 11.9-28.2 28.4-.1 16.3 13.1 27.8 28.1 27.8 7.7 0 15-3 20.1-8.3-.1 4.9-.8 8.4-1.9 10.5-2.9 5.6-9.8 8.5-17.6 8.5-14 0-17.8-8.2-19.1-10.5l-7.3 4.6c1.3 2.4 2.8 4.8 5 6.9 5.2 4.9 13.3 7.4 21.7 7.4 11.8 0 22.1-5 26.1-15.8 1.3-3.6 2-7.5 2-15v-17.8c.3-16.3-13.9-26.7-28.9-26.7m.6 47.8c-11.7 0-19.9-7.9-19.9-19 0-12.3 10.1-20.1 20.3-20.1 8.7 0 19.3 6 19.4 19.8-.1 12.6-9 19.3-19.8 19.3"/><path d="m532.1 342.2c-14.5 0-28.2 11.9-28.2 28.4-.1 16.3 13.1 27.8 28.1 27.8 7.7 0 15-3 20.1-8.3-.1 4.9-.8 8.4-1.9 10.5-2.9 5.6-9.8 8.5-17.6 8.5-14 0-17.8-8.2-19.1-10.5l-7.3 4.6c1.3 2.4 2.8 4.8 5 6.9 5.2 4.9 13.3 7.4 21.7 7.4 11.8 0 22.1-5 26.1-15.8 1.3-3.6 2-7.5 2-15v-17.8c.3-16.3-13.9-26.7-28.9-26.7m.7 47.8c-11.7 0-19.9-7.9-19.9-19 0-12.3 10.1-20.1 20.3-20.1 8.7 0 19.3 6 19.4 19.8-.1 12.6-9.1 19.3-19.8 19.3"/><path d="m189.5 369.2c0 6.5-.4 10.9-.9 12.6-1.9 5.6-7 9.2-14.2 9.3-6.8 0-12.4-3.4-14.4-9.7-.6-2-.9-6.2-.9-12.1v-25.8h-8.9v26.5c0 7.6.9 13.3 2.6 17.3 3.4 7.5 10.3 12.5 21.6 12.5s18.1-5.2 21.4-12.4c1.8-3.9 2.6-9.5 2.7-16.9v-27.1h-9z"/><path d="m51.4 342.2c.7-.1-.8 0 0 0"/><path d="m64.3 380.1c7.4-3 11.9-9.5 11.9-18.2 0-11.8-8.8-17.6-14.7-18.9-3-.7-4.7-.8-10.1-.8-9.1 0-17.6 3.9-20.9 9.1-3.3 5.3-3.6 11.2-3.6 15.4v31.9h8.9s0-12.1 0-16.5h14.7c1.3 0 2.6-.1 3.8-.1l12.8 16.6h11.2zm-14.3-6.9h-14.1c0-2.6 0-6.6 0-6.7 0-9.4 2.4-15.2 16.2-15.4 3.4 0 7.3.4 8.6.9 3.7 1.5 6.4 5.3 6.4 9.8 0 4.8-2.3 8.6-6.6 10.2-2 .8-5.9 1.2-10.5 1.2"/><path d="m112.6 342.2c-17.7 0-28.6 14.6-28.6 28.9 0 14.2 10.8 28.7 28.6 28.7 17.9 0 28.5-14.6 28.5-28.7.1-15.5-11.9-28.9-28.5-28.9m0 49c-13 0-19.6-10.6-19.6-20 0-11.3 8.9-20.4 19.6-20.4 10.4 0 19.6 8.7 19.6 20.4.1 10-7.1 20-19.6 20"/><path d="m435.6 342.2c-17.7 0-28.6 14.6-28.6 28.9 0 14.2 10.8 28.7 28.6 28.7 17.9 0 28.5-14.6 28.5-28.7.1-15.5-11.9-28.9-28.5-28.9m0 49c-13 0-19.6-10.6-19.6-20 0-11.3 8.9-20.4 19.6-20.4 10.4 0 19.6 8.7 19.6 20.4-0 10-7.2 20-19.6 20"/><path d="m473.8 367.7v31.1h9.2v-31.1c-.1-14 9.4-15.1 16.8-15.1v-9.1c-18.1-.5-25.9 9.6-26 24.2"/><path d="m301.7 391.4c-10.8 0-17-8.1-18.5-15.5 5 1.2 10.8 1.7 16.8 1.7 11.7 0 21.6-1.7 30.2-4.3.4-18.9-12.1-31.1-28.4-31.1-18.6 0-28.2 15.8-28.1 28.9-.1 11.4 7.6 28.7 28.5 28.7 10.2 0 20.5-3.5 26.4-14.3l-7.5-4.1c-4.3 7.4-12.1 10-19.4 10m.2-40.7c8 0 17 4.4 19.1 16.4-6.5 1.4-14.1 2.1-20.9 2.1-6.4 0-12.8-.7-17.1-1.9 1.7-8.5 7.6-16.5 18.9-16.6"/><path d="m598.3 391.4c-10.8 0-17-8.1-18.5-15.5 5 1.2 10.8 1.7 16.8 1.7 11.7 0 21.6-1.7 30.2-4.3.4-18.9-12.1-31.1-28.4-31.1-18.6 0-28.2 15.8-28.1 28.9-.1 11.4 7.6 28.7 28.5 28.7 10.2 0 20.5-3.5 26.4-14.3l-7.5-4.1c-4.2 7.4-12 10-19.4 10m.3-40.7c8 0 17 4.4 19.1 16.4-6.5 1.4-14.1 2.1-20.9 2.1-6.4 0-12.8-.7-17.1-1.9 1.7-8.5 7.6-16.5 18.9-16.6"/><path d="m366 369.5v8.5c10.6 1.9 22 .7 22 .7-1.2 6.6-8.2 12.5-17.8 12.6-12.7 0-21.9-9.2-21.9-20.4 0-11.6 10-20 21.2-20 8.3 0 15.2 4.8 19.3 9.3l6.6-6.3c-6.1-5.8-13.7-11.7-26.2-11.7-18.9.1-30 14.3-30 28.7v.1c0 14.6 11.2 28.8 30.6 28.8 15.6 0 27.7-9.5 27.7-27.7v-2.5c.2-.1-15.9 1.7-31.5-.1"/></g><path d="m326.9 191.9c-27.7 0-50.2 22.5-50.2 50.2s22.5 50.3 50.2 50.3 50.2-22.5 50.2-50.3-22.4-50.2-50.2-50.2m0 96.8c-25.7 0-46.5-20.8-46.5-46.5s20.8-46.5 46.5-46.5 46.5 20.8 46.5 46.5-20.8 46.5-46.5 46.5" fill="#f42534"/><path d="m326.9 198.9c-23.9 0-43.3 19.4-43.3 43.3s19.4 43.3 43.3 43.3 43.3-19.4 43.3-43.3-19.4-43.3-43.3-43.3" fill="#f42534"/><path d="m358.1 242.9h-16.9v6.9h10.5c0 11.6-9.8 15.1-17.8 15.1-11.7 0-15.6-5.7-15.6-11.3 0-7.2 6.5-9 16.1-11.3 4-1 12.3-4.6 12.3-16.7 0-11.6-10.8-17-21.5-17-13.4 0-21.5 6.8-21.8 18.7v42.9h6.9v-42.3c.2-9 6.1-13.1 15.2-13.1 8.8 0 13.9 4 13.9 10.7 0 7.5-6 9.8-9.6 10.7-13.7 3.5-18.8 7.8-18.8 17 0 12.3 10.4 17.6 23 17.6 15.2 0 24.4-7.8 24.5-20.9.2-3.2-.2-6.1-.4-7" fill="#fff"/></svg>