<?xml version="1.0" encoding="utf-8"?>
<!-- Generator: Adobe Illustrator 19.2.1, SVG Export Plug-In . SVG Version: 6.00 Build 0)  -->
<svg version="1.1" id="layer" xmlns="http://www.w3.org/2000/svg" xmlns:xlink="http://www.w3.org/1999/xlink" x="0px" y="0px"
	 viewBox="0 0 652 652" style="enable-background:new 0 0 652 652;" xml:space="preserve">
<style type="text/css">
	.st0{fill:#231C34;}
	.st1{fill:#F42534;}
	.st2{fill:#FFFFFF;}
</style>
<g>
	<path class="st0" d="M306.5,452.7h6.6c-1,2.1-2.9,3.1-5.8,3.1c-3.7,0-6.5-1.8-6.5-5.2c0-3.6,3.4-5.2,6.5-5.2c2.3,0,4.1,0.8,5.6,2.3
		l0.2,0.2l2.8-1.4l-0.3-0.3c-2.1-2.4-4.8-3.6-8.1-3.6c-5.3,0-9.8,3.1-9.8,8c0,4.9,4.4,8,9.6,8c4.8,0,9.5-2.6,9.5-8.2v-0.5h-10.4
		V452.7z"/>
	<polygon class="st0" points="273.3,454.5 262.7,443.1 259.3,443.1 259.3,458.2 262.3,458.2 262.3,446.8 272.9,458.2 276.3,458.2 
		276.3,443.1 273.3,443.1 	"/>
	<polygon class="st0" points="202.7,443.1 199.7,443.1 199.7,458.2 213.9,458.2 213.9,455.4 202.7,455.4 	"/>
	<polygon class="st0" points="441.3,455.4 441.3,451.7 449.8,451.7 449.8,449 441.3,449 441.3,445.9 453.5,445.9 453.5,443.1 
		438.3,443.1 438.3,458.2 454.1,458.2 454.1,455.4 	"/>
	<rect x="234.1" y="443.1" class="st0" width="3" height="15.1"/>
	<rect x="413.1" y="443.1" class="st0" width="3" height="15.1"/>
	<path class="st0" d="M391.9,448c0-3.2-2.3-4.9-5.2-4.9H375v15.1h3v-5.5h6.8l3.9,5.5h3.5l-3.9-5.7
		C390.2,452.1,391.9,450.6,391.9,448 M378,449.9v-4h8.1c2.4,0,2.7,1.2,2.7,2.1c0,0.8-0.3,1.9-2.5,1.9H378z"/>
	<polygon class="st0" points="341.3,451.7 349.8,451.7 349.8,449 341.3,449 341.3,445.9 353.5,445.9 353.5,443.1 338.3,443.1 
		338.3,458.2 354.1,458.2 354.1,455.4 341.3,455.4 	"/>
	<path class="st0" d="M235.8,342.2c-14.5,0-28.2,11.9-28.2,28.4c-0.1,16.3,13.1,27.8,28.1,27.8c7.7,0,15-3,20.1-8.3
		c-0.1,4.9-0.8,8.4-1.9,10.5c-2.9,5.6-9.8,8.5-17.6,8.5c-14,0-17.8-8.2-19.1-10.5l-7.3,4.6c1.3,2.4,2.8,4.8,5,6.9
		c5.2,4.9,13.3,7.4,21.7,7.4h0c11.8,0,22.1-5,26.1-15.8c1.3-3.6,2-7.5,2-15v-17.8C265,352.6,250.8,342.2,235.8,342.2 M236.4,390
		c-11.7,0-19.9-7.9-19.9-19c0-12.3,10.1-20.1,20.3-20.1c8.7,0,19.3,6,19.4,19.8C256.1,383.3,247.2,390,236.4,390"/>
	<path class="st0" d="M532.1,342.2c-14.5,0-28.2,11.9-28.2,28.4c-0.1,16.3,13.1,27.8,28.1,27.8c7.7,0,15-3,20.1-8.3
		c-0.1,4.9-0.8,8.4-1.9,10.5c-2.9,5.6-9.8,8.5-17.6,8.5c-14,0-17.8-8.2-19.1-10.5l-7.3,4.6c1.3,2.4,2.8,4.8,5,6.9
		c5.2,4.9,13.3,7.4,21.7,7.4h0c11.8,0,22.1-5,26.1-15.8c1.3-3.6,2-7.5,2-15v-17.8C561.3,352.6,547.1,342.2,532.1,342.2 M532.8,390
		c-11.7,0-19.9-7.9-19.9-19c0-12.3,10.1-20.1,20.3-20.1c8.7,0,19.3,6,19.4,19.8C552.5,383.3,543.5,390,532.8,390"/>
	<path class="st0" d="M189.5,369.2c0,6.5-0.4,10.9-0.9,12.6c-1.9,5.6-7,9.2-14.2,9.3c-6.8,0-12.4-3.4-14.4-9.7
		c-0.6-2-0.9-6.2-0.9-12.1v-25.8h-8.9V370c0,7.6,0.9,13.3,2.6,17.3c3.4,7.5,10.3,12.5,21.6,12.5c11.3,0,18.1-5.2,21.4-12.4
		c1.8-3.9,2.6-9.5,2.7-16.9v-27.1h-9V369.2z"/>
	<path class="st0" d="M51.4,342.2C52.1,342.1,50.6,342.2,51.4,342.2"/>
	<path class="st0" d="M64.3,380.1c7.4-3,11.9-9.5,11.9-18.2c0-11.8-8.8-17.6-14.7-18.9c-3-0.7-4.7-0.8-10.1-0.8
		c-9.1,0-17.6,3.9-20.9,9.1c-3.3,5.3-3.6,11.2-3.6,15.4v31.9h8.9c0,0,0-12.1,0-16.5h14.7c1.3,0,2.6-0.1,3.8-0.1l12.8,16.6h11.2
		L64.3,380.1z M50,373.2H35.9c0-2.6,0-6.6,0-6.7c0-9.4,2.4-15.2,16.2-15.4c3.4,0,7.3,0.4,8.6,0.9c3.7,1.5,6.4,5.3,6.4,9.8
		c0,4.8-2.3,8.6-6.6,10.2C58.5,372.8,54.6,373.2,50,373.2"/>
	<path class="st0" d="M112.6,342.2c-17.7,0-28.6,14.6-28.6,28.9c0,14.2,10.8,28.7,28.6,28.7h0c17.9,0,28.5-14.6,28.5-28.7
		C141.2,355.6,129.2,342.2,112.6,342.2 M112.6,391.2c-13,0-19.6-10.6-19.6-20c0-11.3,8.9-20.4,19.6-20.4c10.4,0,19.6,8.7,19.6,20.4
		C132.3,381.2,125.1,391.2,112.6,391.2"/>
	<path class="st0" d="M435.6,342.2c-17.7,0-28.6,14.6-28.6,28.9c0,14.2,10.8,28.7,28.6,28.7h0c17.9,0,28.5-14.6,28.5-28.7
		C464.2,355.6,452.2,342.2,435.6,342.2 M435.6,391.2c-13,0-19.6-10.6-19.6-20c0-11.3,8.9-20.4,19.6-20.4c10.4,0,19.6,8.7,19.6,20.4
		C455.2,381.2,448,391.2,435.6,391.2"/>
	<path class="st0" d="M473.8,367.7v31.1h9.2v-31.1c-0.1-14,9.4-15.1,16.8-15.1v-9.1C481.7,343,473.9,353.1,473.8,367.7"/>
	<path class="st0" d="M301.7,391.4c-10.8,0-17-8.1-18.5-15.5c5,1.2,10.8,1.7,16.8,1.7c11.7,0,21.6-1.7,30.2-4.3
		c0.4-18.9-12.1-31.1-28.4-31.1c-18.6,0-28.2,15.8-28.1,28.9c-0.1,11.4,7.6,28.7,28.5,28.7c10.2,0,20.5-3.5,26.4-14.3l-7.5-4.1
		C316.8,388.8,309,391.4,301.7,391.4 M301.9,350.7c8,0,17,4.4,19.1,16.4c-6.5,1.4-14.1,2.1-20.9,2.1c-6.4,0-12.8-0.7-17.1-1.9
		C284.7,358.8,290.6,350.8,301.9,350.7"/>
	<path class="st0" d="M598.3,391.4c-10.8,0-17-8.1-18.5-15.5c5,1.2,10.8,1.7,16.8,1.7c11.7,0,21.6-1.7,30.2-4.3
		c0.4-18.9-12.1-31.1-28.4-31.1c-18.6,0-28.2,15.8-28.1,28.9c-0.1,11.4,7.6,28.7,28.5,28.7c10.2,0,20.5-3.5,26.4-14.3l-7.5-4.1
		C613.5,388.8,605.7,391.4,598.3,391.4 M598.6,350.7c8,0,17,4.4,19.1,16.4c-6.5,1.4-14.1,2.1-20.9,2.1c-6.4,0-12.8-0.7-17.1-1.9
		C581.4,358.8,587.3,350.8,598.6,350.7"/>
	<path class="st0" d="M366,369.5v8.5c10.6,1.9,22,0.7,22,0.7c-1.2,6.6-8.2,12.5-17.8,12.6c-12.7,0-21.9-9.2-21.9-20.4
		c0-11.6,10-20,21.2-20c8.3,0,15.2,4.8,19.3,9.3l6.6-6.3c-6.1-5.8-13.7-11.7-26.2-11.7c-18.9,0.1-30,14.3-30,28.7v0.1
		c0,14.6,11.2,28.8,30.6,28.8c15.6,0,27.7-9.5,27.7-27.7l0-2.5C397.7,369.5,381.6,371.3,366,369.5"/>
	<path class="st1" d="M326.9,191.9c-27.7,0-50.2,22.5-50.2,50.2s22.5,50.3,50.2,50.3c27.7,0,50.2-22.5,50.2-50.3
		S354.7,191.9,326.9,191.9 M326.9,288.7c-25.7,0-46.5-20.8-46.5-46.5c0-25.7,20.8-46.5,46.5-46.5c25.7,0,46.5,20.8,46.5,46.5
		C373.4,267.9,352.6,288.7,326.9,288.7"/>
	<path class="st1" d="M326.9,198.9c-23.9,0-43.3,19.4-43.3,43.3c0,23.9,19.4,43.3,43.3,43.3c23.9,0,43.3-19.4,43.3-43.3
		C370.2,218.3,350.8,198.9,326.9,198.9"/>
	<path class="st2" d="M358.1,242.9h-16.9v6.9h10.5c0,11.6-9.8,15.1-17.8,15.1c-11.7,0-15.6-5.7-15.6-11.3c0-7.2,6.5-9,16.1-11.3
		c4-1,12.3-4.6,12.3-16.7c0-11.6-10.8-17-21.5-17c-13.4,0-21.5,6.8-21.8,18.7v42.9h6.9v-42.3c0.2-9,6.1-13.1,15.2-13.1
		c8.8,0,13.9,4,13.9,10.7c0,7.5-6,9.8-9.6,10.7c-13.7,3.5-18.8,7.8-18.8,17c0,12.3,10.4,17.6,23,17.6c15.2,0,24.4-7.8,24.5-20.9
		C358.7,246.7,358.3,243.8,358.1,242.9"/>
</g>
</svg>
