<svg id="logo_vigicrues" data-name="logo_vigicrues" xmlns="http://www.w3.org/2000/svg" viewBox="0 0 361.5 84.67"><title>Vigicrues</title><path d="M50.45 28.25a11.37 11.37 0 0 1-.59 2.11q-.59 1.77-1.3 3.84c-.47 1.38-.92 2.68-1.36 3.89a23.42 23.42 0 0 0-.77 2.42q-.59 1.89-1.43 4.13T43.49 49c-.4 1.34-.87 2.77-1.42 4.31s-1.06 3-1.53 4.31c-.32.87-.65 1.83-1 2.89s-.69 2-1 2.78q-1 2.72-2.12 6t-2 6.08A15.33 15.33 0 0 1 33 78.63a4.42 4.42 0 0 1-1.59 1.6 4.93 4.93 0 0 1-2.06.53c-.79 0-1.66.06-2.6.06q-1.89 0-3.12-.12a3.7 3.7 0 0 1-2.13-.88 7.44 7.44 0 0 1-1.65-2.3 27.4 27.4 0 0 1-1.6-4.37Q14.67 62 10.84 51.21t-7.61-21.9a1.31 1.31 0 0 1-.12-.59v-.47a2.4 2.4 0 0 1 .56-1.77 2.82 2.82 0 0 1 1.42-.77 8.29 8.29 0 0 1 1.71-.17h3.72a5 5 0 0 1 2 .41 4.42 4.42 0 0 1 1.74 1.41 8 8 0 0 1 1.24 2.89q.24.83.77 2.48c.35 1.1.65 2.09.88 3q.83 2.37 1.77 5.61t1.89 6.31q.47 1.31 1 3T22.82 54c.08.24.22.73.41 1.48a14.76 14.76 0 0 0 .83 2.3 13.63 13.63 0 0 0 1.18 2.12 1.89 1.89 0 0 0 1.6.95 2 2 0 0 0 1.53-.95 11.82 11.82 0 0 0 1.24-2.06 14.45 14.45 0 0 0 .83-2.12 9.38 9.38 0 0 0 .3-1.12q.35-1.3.82-2.89c.31-1.06.59-2 .83-2.89q.36-.94.83-2.36c.31-1 .59-1.85.82-2.72q1-2.72 1.89-5.67t1.89-6.38A20.46 20.46 0 0 1 39 28.22a4.65 4.65 0 0 1 1.41-1.86 4.1 4.1 0 0 1 2-.71q1.18-.12 2.83-.12h1.48a6.16 6.16 0 0 1 1.71.24 3.59 3.59 0 0 1 1.42.77 2.21 2.21 0 0 1 .6 1.71zM120.32 71.43a5.17 5.17 0 0 1-1.18 3.19 9 9 0 0 1-3.54 2.6 41.81 41.81 0 0 1-4.6 2 31.07 31.07 0 0 1-7.38 1.42q-1.83.12-3.48.12a27.68 27.68 0 0 1-11.93-2.3 21 21 0 0 1-7.85-6.26A25.53 25.53 0 0 1 76 63a42.77 42.77 0 0 1-1.32-10.86 44.25 44.25 0 0 1 1.2-10.45A26.35 26.35 0 0 1 80 32.53 21.26 21.26 0 0 1 87.67 26a24.63 24.63 0 0 1 11.57-2.5 29.82 29.82 0 0 1 5.08.47 21.14 21.14 0 0 1 5.26 1.65 18.8 18.8 0 0 1 4.78 3.24 15.51 15.51 0 0 1 3.64 5.37c.16.39.39 1.12.71 2.18a10.67 10.67 0 0 1 .47 3 3.08 3.08 0 0 1-.47 1.83 3.22 3.22 0 0 1-1.18 1 4 4 0 0 1-1.48.41c-.51 0-1 .06-1.36.06a6.31 6.31 0 0 1-3.84-1 11 11 0 0 1-2.63-3.71 8.21 8.21 0 0 0-3.84-3.54 11.39 11.39 0 0 0-4.78-1.18 10.63 10.63 0 0 0-3.13.53 12.46 12.46 0 0 0-6.67 4.84A19.08 19.08 0 0 0 87.56 43a21.44 21.44 0 0 0-1.12 4.73 36.39 36.39 0 0 0-.3 4.43 29.54 29.54 0 0 0 .83 7 18.79 18.79 0 0 0 2.6 6.08A13.77 13.77 0 0 0 94 69.49a12 12 0 0 0 6.32 1.59 16.69 16.69 0 0 0 3.13-.35 14.38 14.38 0 0 0 3.55-1.18 8.93 8.93 0 0 0 2.83-2.19A5 5 0 0 0 111 64a6.11 6.11 0 0 0-.71-2.71 3.11 3.11 0 0 0-2.6-1.65 3.85 3.85 0 0 0-1.18-.24h-2.84a3.2 3.2 0 0 1-.89-.24 6.93 6.93 0 0 1-1.24-.59 2.55 2.55 0 0 1-1-1.48 6.52 6.52 0 0 1-.29-1.83 5.71 5.71 0 0 1 .24-1.71 4.46 4.46 0 0 1 .47-1.12 2.29 2.29 0 0 1 1.18-.89 4.1 4.1 0 0 1 1.54-.41h13.1a3.23 3.23 0 0 1 .89.24l1.24.47a2.1 2.1 0 0 1 1 1.24 4.45 4.45 0 0 1 .41 1.48zM135.91 76.27a5.74 5.74 0 0 1-.18 1 2.25 2.25 0 0 1-.53 1.12 3.17 3.17 0 0 1-2.18 1.3c-.83.08-1.67.12-2.54.12-.63 0-1.3 0-2-.06a4.13 4.13 0 0 1-2-.65 2.69 2.69 0 0 1-1-1.36 4.45 4.45 0 0 1-.41-1.48V28a4.77 4.77 0 0 1 .17-.94 3.23 3.23 0 0 1 .53-1.18 3 3 0 0 1 2.23-1.26c.87 0 1.69-.06 2.48-.06.55 0 1.2 0 2 .06a5.06 5.06 0 0 1 2.18.65 2.45 2.45 0 0 1 .94 1.3A4.51 4.51 0 0 1 136 28zM184.79 62.46a15.66 15.66 0 0 1-.59 3.9c-.39 1.5-.71 2.56-.95 3.19a17.14 17.14 0 0 1-3.37 5.81 15.48 15.48 0 0 1-4.43 3.42 17.13 17.13 0 0 1-5 1.6 32.26 32.26 0 0 1-5.08.42 31.55 31.55 0 0 1-6.61-.71 22.06 22.06 0 0 1-6.32-2.42 21.66 21.66 0 0 1-5.55-4.6 25 25 0 0 1-4.22-7.42 25.45 25.45 0 0 1-1.59-6.65 60.48 60.48 0 0 1-.41-6.67 41.58 41.58 0 0 1 1.53-11.57 26.65 26.65 0 0 1 4.47-9.15 20.43 20.43 0 0 1 7.62-6 25.1 25.1 0 0 1 10.63-2.12 32.69 32.69 0 0 1 4.6.35 19.38 19.38 0 0 1 4.84 1.36 15.59 15.59 0 0 1 4.43 2.89 15.28 15.28 0 0 1 3.49 5c.39 1.11.77 2.24 1.12 3.43a10.92 10.92 0 0 1 .53 3.07 3.09 3.09 0 0 1-.47 1.83 3.43 3.43 0 0 1-1.12 1 3.49 3.49 0 0 1-1.42.41c-.51 0-1 .06-1.48.06a8.33 8.33 0 0 1-3.54-.71q-1.54-.71-3.07-4a8.18 8.18 0 0 0-2.83-3 9.15 9.15 0 0 0-3.54-1.59 2.81 2.81 0 0 0-.89-.12h-.77a9.19 9.19 0 0 0-4.78 1.3 13.35 13.35 0 0 0-3.78 3.36 18.77 18.77 0 0 0-2.6 4.6 21.86 21.86 0 0 0-1.36 5.14c-.08.63-.14 1.47-.18 2.54s-.06 1.67-.06 1.83a36.28 36.28 0 0 0 .29 4.49 20.64 20.64 0 0 0 1.12 4.6 19.38 19.38 0 0 0 2.25 4.31 14.68 14.68 0 0 0 3.54 3.6 8 8 0 0 0 2.76 1.4 10.21 10.21 0 0 0 2.89.47 9.74 9.74 0 0 0 4.9-1.47 9.15 9.15 0 0 0 3.87-4.82 10 10 0 0 0 .77-2.3 4.67 4.67 0 0 1 1.23-2.16 3.76 3.76 0 0 1 2.13-1.12 15 15 0 0 1 2.24-.18 9.59 9.59 0 0 1 3.25.53q1.5.51 1.51 2.87zM230.12 77.57a1.65 1.65 0 0 1-.65 1.42 3.89 3.89 0 0 1-1.53.65 9.66 9.66 0 0 1-1.83.17H222a5.59 5.59 0 0 1-2.3-.47 3.51 3.51 0 0 1-1.54-.94c-.16-.16-.33-.35-.53-.59s-.38-.43-.53-.59l-4.08-7.73q-2.08-3.95-4.39-7.86a5.09 5.09 0 0 1-.59-.77 2 2 0 0 0-.94-.77 3.94 3.94 0 0 0-2.72-.95 5.25 5.25 0 0 0-2.12.53 3.12 3.12 0 0 0-1.54 2.54 4.18 4.18 0 0 0-.24.59 1.89 1.89 0 0 0-.12.59v12.88a5.6 5.6 0 0 1-.18 1 2.29 2.29 0 0 1-.55 1.09 3.17 3.17 0 0 1-2.18 1.3c-.83.08-1.67.12-2.54.12-.63 0-1.3 0-2-.06a4.15 4.15 0 0 1-2-.65 2.69 2.69 0 0 1-1-1.36 4.43 4.43 0 0 1-.41-1.48V28.1a3.38 3.38 0 0 1 1.13-2.42 3.1 3.1 0 0 1 2.54-1h17.24q9.68.35 13.87 5a17.26 17.26 0 0 1 4.19 12 17 17 0 0 1-1.18 7 18.25 18.25 0 0 1-2.54 4.13q-1.36 1.6-2.54 2.77a4 4 0 0 0-1.18 3 7.06 7.06 0 0 0 .12.94 6 6 0 0 0 .35 1.3c.39.87.93 1.91 1.59 3.13l2.13 3.89q1.12 2.07 2.3 4.19c.79 1.42 1.53 2.75 2.25 4a1.28 1.28 0 0 1 .29.77c.04.36.06.61.06.77zm-13.23-35.89a6.56 6.56 0 0 0-.94-3.6 7 7 0 0 0-2.54-2.36 12.72 12.72 0 0 0-3.54-1.3 19.13 19.13 0 0 0-4-.41 6.42 6.42 0 0 0-3.37.71 4 4 0 0 0-1.59 1.77 6.56 6.56 0 0 0-.53 2.42c0 .91-.06 1.83-.06 2.78 0 1.1 0 2.11.06 3a5.92 5.92 0 0 0 .59 2.42 3.7 3.7 0 0 0 1.7 1.65 7.41 7.41 0 0 0 3.36.59 23.2 23.2 0 0 0 5-.65 7.17 7.17 0 0 0 4.55-3.13 6 6 0 0 0 1.29-3.9zM278.53 28.22l-.12 34a47.43 47.43 0 0 1-.65 4.72 14.42 14.42 0 0 1-1.6 4.25 15.21 15.21 0 0 1-4 4.9 20.78 20.78 0 0 1-5 2.89 22.09 22.09 0 0 1-5.49 1.38 40.17 40.17 0 0 1-5 .36 45 45 0 0 1-4.9-.3 21 21 0 0 1-5.25-1.3 20.63 20.63 0 0 1-5-2.78 16.64 16.64 0 0 1-4.13-4.61 14.81 14.81 0 0 1-1.77-4.6q-.47-2.36-.71-4.6l-.12-34.36q.36-2.83 2-3.25a14.17 14.17 0 0 1 3.42-.41c.55 0 1.2 0 2 .06a5.07 5.07 0 0 1 2.18.65 2.45 2.45 0 0 1 1 1.3 4.57 4.57 0 0 1 .35 1.41v30.63a3.34 3.34 0 0 0 .12.71 3.83 3.83 0 0 1 .12.94 13 13 0 0 0 1.06 4.9 9.57 9.57 0 0 0 5.79 5.31 11.72 11.72 0 0 0 3.9.65 12.32 12.32 0 0 0 4.25-.83 8.61 8.61 0 0 0 3.42-2.3 11.27 11.27 0 0 0 2-3.25 15 15 0 0 0 .94-3.66 27.82 27.82 0 0 0 .24-3.3V28a3.8 3.8 0 0 1 .23-.94 4.31 4.31 0 0 1 .59-1.18 3 3 0 0 1 2.18-1.24c.83 0 1.67-.06 2.54-.06a15.46 15.46 0 0 1 1.6.06 6.57 6.57 0 0 1 1.71.36 3.13 3.13 0 0 1 1.32 1 4.14 4.14 0 0 1 .78 2.22zM318.9 75v1.3a4.75 4.75 0 0 1-.71 2 2.1 2.1 0 0 1-1.24 1 4.52 4.52 0 0 1-1.48.41h-28.68a4 4 0 0 1-.94-.23 8.85 8.85 0 0 1-1.18-.47 2.07 2.07 0 0 1-1-1.24 4.46 4.46 0 0 1-.41-1.59V28.1a3.39 3.39 0 0 1 .24-.89c.16-.43.31-.84.47-1.24a1.91 1.91 0 0 1 1.3-.94 5.52 5.52 0 0 1 1.65-.35h27.51a5.8 5.8 0 0 1 1.06.11 2.83 2.83 0 0 1 1.18.57 3 3 0 0 1 1.18 1.83 10.06 10.06 0 0 1 .24 2.07 10 10 0 0 1-.06 1.3 6.92 6.92 0 0 1-.65 2 2.1 2.1 0 0 1-1.24 1 4.46 4.46 0 0 1-1.59.41h-15.88a3.87 3.87 0 0 0-1.18.24 3.67 3.67 0 0 0-2 .94 4 4 0 0 0-1 1.65 7.76 7.76 0 0 0-.35 1.89c0 .63-.06 1.14-.06 1.54v1a7 7 0 0 0 .12 1.36 8.34 8.34 0 0 1 .41 1.42 2.68 2.68 0 0 0 1.12 1.53 6.84 6.84 0 0 0 1.36.59 5.09 5.09 0 0 0 1.6.35h13.7a3.93 3.93 0 0 1 .94.24 9.43 9.43 0 0 1 1.18.47 3.51 3.51 0 0 1 1.16 2 10.49 10.49 0 0 1 .18 3.37 5.62 5.62 0 0 1-.77 2 1.88 1.88 0 0 1-1.24.94 5.17 5.17 0 0 1-1.48.36h-13.69a1.49 1.49 0 0 0-.53.12l-.65.24a4.31 4.31 0 0 0-2.14 1.15 4 4 0 0 0-1 1.83 8.78 8.78 0 0 0-.24 2.06v3.24a12.47 12.47 0 0 0 .12 1.95 8.34 8.34 0 0 1 .41 1.42 2.26 2.26 0 0 0 1.12 1.42 4.52 4.52 0 0 0 1.3.65 5 5 0 0 0 1.61.42h16.76a4 4 0 0 1 .89.18 4.93 4.93 0 0 1 1.24.53 2.82 2.82 0 0 1 1.13 1.93 14.28 14.28 0 0 1 .21 2zM364.59 63.76a17.57 17.57 0 0 1-1.72 8.15 14.6 14.6 0 0 1-4.42 5.25 17.42 17.42 0 0 1-6.32 2.77 32.38 32.38 0 0 1-7.26.83 46.08 46.08 0 0 1-5.43-.36 21 21 0 0 1-5.77-1.53 17.9 17.9 0 0 1-5.13-3.37 14.25 14.25 0 0 1-3.66-5.85 11 11 0 0 1-.42-1.24c-.12-.43-.26-.89-.41-1.36a8.51 8.51 0 0 1-.35-1.77c-.08-.71-.12-1.14-.12-1.3a3.06 3.06 0 0 1 .59-2 3.25 3.25 0 0 1 1.42-1 6.42 6.42 0 0 1 1.71-.36q.89-.06 1.48-.06a19.75 19.75 0 0 1 2.36.12 3.78 3.78 0 0 1 1.71.65 5 5 0 0 1 1.42 1.67 32 32 0 0 1 1.48 3 13 13 0 0 0 5.25 4.36l.77.23.88.24a10.84 10.84 0 0 0 1.3.17c.47 0 .79.06 1 .06a11 11 0 0 0 4.79-1.22 6.84 6.84 0 0 0 2.12-1.71 3.92 3.92 0 0 0 .89-2.6 4.59 4.59 0 0 0-.89-2.6 7.1 7.1 0 0 0-2.86-2.24q-2.72-1.42-5.73-2.66t-6-2.6a50 50 0 0 1-5.43-2.89 13.94 13.94 0 0 1-4-3.66 12.53 12.53 0 0 1-2.12-4.67 21.91 21.91 0 0 1-.47-4.43 15.74 15.74 0 0 1 1.65-7.56 14.86 14.86 0 0 1 4.31-5 17.7 17.7 0 0 1 6-2.83 25.85 25.85 0 0 1 6.79-.89 29.58 29.58 0 0 1 4.37.35 21.13 21.13 0 0 1 4.72 1.3 17.54 17.54 0 0 1 4.43 2.6 15.34 15.34 0 0 1 3.6 4.25 13.06 13.06 0 0 1 1.3 3.13 11 11 0 0 1 .47 2.78 2.82 2.82 0 0 1-.59 2 3.53 3.53 0 0 1-1.36.94 4.54 4.54 0 0 1-1.65.3h-1.48l-1.24.06a5.39 5.39 0 0 1-1.87-.21 9.92 9.92 0 0 1-1.18-.53 3.56 3.56 0 0 1-1.42-1.36 2.17 2.17 0 0 1-.41-.59 2.3 2.3 0 0 0-.41-.59 7.56 7.56 0 0 0-3.42-3.49 9.26 9.26 0 0 0-3.9-1 9 9 0 0 0-2.12.3 8.06 8.06 0 0 0-2.24.94 6.27 6.27 0 0 0-1.77 1.6 3.82 3.82 0 0 0-.71 2.36 3.89 3.89 0 0 0 1.3 3.13 15 15 0 0 0 3.66 2.19q1.89.83 4.49 1.89l5 2q7.67 2.83 10.39 6.61a15.58 15.58 0 0 1 2.63 9.3z" transform="translate(-3.1 -3.36)" fill="#504d49"/><path d="M65.51 74v6.75a.88.88 0 0 1-.15.31.9.9 0 0 1-.46.36 5 5 0 0 1-1.89.4h-3.92a8.72 8.72 0 0 1-1.73-.2 1.89 1.89 0 0 1-.86-.43c-.24-.21-.36-.36-.36-.46V74c-9.19.71-16.06 3.54-16.06 6.94 0 3.93 9.19 7.11 20.52 7.11s20.52-3.19 20.52-7.11c.01-3.36-6.65-6.15-15.61-6.94z" transform="translate(-3.1 -3.36)" fill="#7c9fbb"/><path d="M65.51 19.6a.91.91 0 0 1-.15.31.89.89 0 0 1-.46.35 5 5 0 0 1-1.89.41h-3.92a8.73 8.73 0 0 1-1.73-.2 1.9 1.9 0 0 1-.86-.47c-.24-.21-.36-.37-.36-.46V4.46a.72.72 0 0 1 .15-.29 1.1 1.1 0 0 1 .46-.37 4.83 4.83 0 0 1 1.92-.44h3.82a10.55 10.55 0 0 1 1.88.2 1.61 1.61 0 0 1 .82.41c.21.2.3.34.3.44z" transform="translate(-3.1 -3.36)" fill="red"/><path d="M65.51 40.07a.89.89 0 0 1-.15.32.88.88 0 0 1-.46.35 4.93 4.93 0 0 1-1.89.41h-3.92a8.66 8.66 0 0 1-1.73-.2 1.88 1.88 0 0 1-.86-.43c-.24-.21-.36-.36-.36-.46V24.93a.74.74 0 0 1 .15-.29 1.15 1.15 0 0 1 .46-.37 4.89 4.89 0 0 1 1.92-.4h3.82a10.55 10.55 0 0 1 1.88.2 1.62 1.62 0 0 1 .82.41c.21.2.3.35.3.44z" transform="translate(-3.1 -3.36)" fill="#fa0"/><path d="M65.51 60.54a.92.92 0 0 1-.15.31.89.89 0 0 1-.46.35 5 5 0 0 1-1.89.41h-3.92a8.59 8.59 0 0 1-1.73-.21 1.89 1.89 0 0 1-.86-.4c-.24-.21-.36-.37-.36-.46V45.36a.72.72 0 0 1 .15-.3 1.13 1.13 0 0 1 .46-.37 4.85 4.85 0 0 1 1.92-.33h3.82a10.59 10.59 0 0 1 1.88.21 1.61 1.61 0 0 1 .82.41c.21.2.3.35.3.45z" transform="translate(-3.1 -3.36)" fill="#ff0"/><path d="M65.51 80.78a.88.88 0 0 1-.15.31.9.9 0 0 1-.46.36 5 5 0 0 1-1.89.4h-3.92a8.73 8.73 0 0 1-1.73-.2 1.89 1.89 0 0 1-.86-.43c-.24-.21-.36-.36-.36-.46V65.64a.74.74 0 0 1 .15-.3 1.11 1.11 0 0 1 .46-.37 4.87 4.87 0 0 1 1.92-.39h3.82a10.55 10.55 0 0 1 1.88.2 1.63 1.63 0 0 1 .82.41c.21.2.3.35.3.45z" transform="translate(-3.1 -3.36)" fill="#28d761"/><path d="M65.51 78.89v1.89a.88.88 0 0 1-.15.31.9.9 0 0 1-.46.36 5 5 0 0 1-1.89.4h-3.92a8.72 8.72 0 0 1-1.73-.2 1.89 1.89 0 0 1-.86-.43 1.37 1.37 0 0 1-.3-.34 1 1 0 0 0-.28.62c0 1.46 4.3 2.64 9.59 2.64s9.6-1.18 9.6-2.64-4.3-2.61-9.6-2.61z" transform="translate(-3.1 -3.36)" fill="#63839b"/></svg>