<svg width="128" height="127" viewBox="0 0 128 127" fill="none" xmlns="http://www.w3.org/2000/svg">
<path d="M62.5287 47.0776L54.2529 32.1149C50.6973 25.7893 48.9195 20.6801 48.9195 16.7874C48.9195 13.6245 50.2069 10.7658 52.7816 8.21121L55.1724 5.83908L57.0115 3.64943C59.0958 1.21648 61.4253 0 64 0C66.5747 0 68.659 0.973182 70.2529 2.91955C71.1111 3.89273 72.0307 4.92673 73.0115 6.02156C73.9923 6.99474 74.9732 7.96791 75.954 8.9411C78.0383 11.0091 79.0805 13.6245 79.0805 16.7874C79.0805 18.3688 78.8352 20.1327 78.3448 22.079C77.8544 23.9037 77.0575 25.8501 75.954 27.9181C73.7471 31.9325 70.2529 38.319 65.4713 47.0776H62.5287ZM81.8391 49.2672L78.5287 45.6178L107.586 14.5977C110.529 11.3132 113.165 9.67098 115.494 9.67098C116.843 9.67098 117.762 10.0967 118.253 10.9483C118.743 11.7998 118.988 12.6513 118.988 13.5029C118.988 14.3544 118.437 15.5709 117.333 17.1523C116.23 18.6121 115.249 19.7069 114.391 20.4368L81.8391 49.2672ZM46.1609 49.2672L13.6092 20.4368C12.3831 19.342 11.2797 18.1255 10.2989 16.7874C9.44061 15.4492 9.01149 14.2328 9.01149 13.1379C9.01149 12.4081 9.31801 11.6782 9.93103 10.9483C10.5441 10.0967 11.4023 9.67098 12.5057 9.67098C13.4866 9.67098 14.6513 10.0967 16 10.9483C17.4713 11.6782 19.0038 12.8946 20.5977 14.5977L49.4713 45.6178L46.1609 49.2672ZM16.9195 78.4626C13.7318 78.4626 10.9119 77.1853 8.45977 74.6307L5.88506 72.2586L3.67816 70.4339C1.22605 68.4876 0 66.1763 0 63.5C0 60.9454 0.980843 58.8774 2.94253 57.296C3.92337 56.4444 4.96552 55.5929 6.06897 54.7414C7.17241 53.7682 8.21456 52.7342 9.1954 51.6394C11.1571 49.5714 13.7318 48.5374 16.9195 48.5374C20.1073 48.5374 23.2337 49.2672 26.2988 50.727C29.364 52.1868 32.8582 54.0115 36.7816 56.2012L47.4483 62.0402V64.9598L32.5517 73.171C26.1762 76.6988 20.9655 78.4626 16.9195 78.4626ZM111.08 78.4626C109.119 78.4626 106.789 77.9761 104.092 77.0029C101.517 76.0297 98.6973 74.7524 95.6322 73.171L80.5517 64.9598V62.0402C86.682 58.7558 92.3831 55.7146 97.6552 52.9167C102.927 49.9971 107.402 48.5374 111.08 48.5374C114.268 48.5374 117.149 49.8147 119.724 52.3693L122.115 54.7414L124.322 56.5661C126.774 58.5125 128 60.8238 128 63.5C128 66.0546 127.019 68.1226 125.057 69.704C124.077 70.5556 123.034 71.4679 121.931 72.4411C120.95 73.4143 119.969 74.3875 118.988 75.3606C116.904 77.4286 114.268 78.4626 111.08 78.4626ZM64 78.0977C60.0766 78.0977 56.6437 76.6379 53.7011 73.7184C50.7586 70.7989 49.2874 67.3927 49.2874 63.5C49.2874 59.6073 50.6973 56.2012 53.5172 53.2816C56.4598 50.3621 59.954 48.9023 64 48.9023C67.9234 48.9023 71.3563 50.3621 74.2988 53.2816C77.2414 56.2012 78.7126 59.6073 78.7126 63.5C78.7126 67.3927 77.2414 70.7989 74.2988 73.7184C71.3563 76.6379 67.9234 78.0977 64 78.0977ZM12.5057 117.329C11.4023 117.329 10.5441 116.964 9.93103 116.234C9.31801 115.383 9.01149 114.592 9.01149 113.862C9.01149 112.889 9.44061 111.733 10.2989 110.395C11.2797 108.935 12.3831 107.658 13.6092 106.563L46.1609 77.7328L49.4713 81.3822L20.5977 112.402C19.0038 114.105 17.4713 115.383 16 116.234C14.6513 116.964 13.4866 117.329 12.5057 117.329ZM115.862 117.329C113.165 117.329 110.345 115.687 107.402 112.402L78.5287 81.3822L81.8391 77.7328L114.391 106.563C115.739 107.78 116.843 109.057 117.701 110.395C118.559 111.612 118.988 112.767 118.988 113.862C118.988 114.47 118.682 115.2 118.069 116.052C117.579 116.903 116.843 117.329 115.862 117.329ZM64 127C61.3027 127 59.0345 125.844 57.1954 123.533L54.9885 120.796C52.4138 118.606 50.7586 116.66 50.023 114.957C49.1647 113.619 48.7356 112.281 48.7356 110.943C48.7356 106.442 50.5747 101.028 54.2529 94.7026L62.5287 79.9224H65.4713L71.3563 90.5057C72.9502 93.182 74.2375 95.6149 75.2184 97.8046C76.3218 99.8726 77.1188 101.576 77.6092 102.914C78.2222 104.252 78.59 105.529 78.7126 106.746C78.9579 107.962 79.0805 109.118 79.0805 110.213C79.0805 111.794 78.7126 113.254 77.977 114.592C77.364 115.93 76.4444 117.268 75.2184 118.606L70.9885 123.351C68.659 125.784 66.3295 127 64 127Z" fill="#380075"/>
</svg>
