<svg width="169" height="168" viewBox="0 0 169 168" fill="none" xmlns="http://www.w3.org/2000/svg">
<path d="M34.6384 148.042C31.1084 148.042 27.799 146.507 24.7102 143.436C21.6214 140.366 20.077 137.076 20.077 133.567C20.077 129.765 21.7685 126.183 25.1514 122.82C27.6519 120.334 30.4465 118.141 33.5353 116.24C36.7711 114.339 40.3011 112.439 44.1253 110.538C47.5083 108.783 51.0383 106.809 54.7154 104.616C58.3925 102.423 62.3638 99.718 66.6293 96.5013C64.7172 93.8694 63.4669 90.9452 62.8786 87.7285C57.7306 88.4595 53.0239 89.3368 48.7585 90.3603C44.6401 91.3838 40.7424 92.4804 37.0653 93.6501C32.9469 94.9661 29.0492 96.0627 25.3721 96.9399C21.842 97.8172 18.3856 98.2559 15.0026 98.2559C10.2959 98.2559 6.6188 97.0131 3.97128 94.5274C1.32376 91.8956 0 88.3864 0 84C0 79.6136 1.32376 76.1775 3.97128 73.6919C6.6188 71.06 10.2959 69.7441 15.0026 69.7441C18.3856 69.7441 21.842 70.1828 25.3721 71.0601C29.0492 71.9373 32.9469 73.0339 37.0653 74.3499C40.7424 75.5196 44.6401 76.6162 48.7585 77.6397C53.0239 78.6632 57.8042 79.6136 63.0992 80.4909C63.6876 77.1279 64.9378 74.1305 66.8499 71.4987C62.5844 68.282 58.5396 65.577 54.7154 63.3838C51.0383 61.1906 47.5083 59.2167 44.1253 57.4621C40.3011 55.4151 36.7711 53.4413 33.5353 51.5405C30.4465 49.6397 27.6519 47.5196 25.1514 45.1802C21.7685 41.8172 20.077 38.235 20.077 34.4334C20.077 30.9243 21.6214 27.6345 24.7102 24.564C27.799 21.4935 31.1084 19.9582 34.6384 19.9582C38.4626 19.9582 42.0661 21.6397 45.4491 25.0026C47.9495 27.342 50.1558 30.1201 52.0679 33.3368C53.98 36.5535 55.8921 40.0627 57.8042 43.8642C59.5692 47.2272 61.5548 50.8094 63.7611 54.611C65.9674 58.2663 68.6884 62.2141 71.9243 66.4543C74.5718 64.4073 77.587 63.1645 80.97 62.7258C80.0875 57.4621 79.1314 52.7833 78.1018 48.6893C77.0722 44.4491 75.9691 40.5013 74.7924 36.8459C73.4687 32.6057 72.3655 28.7311 71.483 25.2219C70.6005 21.7128 70.1593 18.2768 70.1593 14.9138C70.1593 10.235 71.4095 6.57963 73.9099 3.94778C76.5574 1.31593 80.0875 0 84.5 0C88.9125 0 92.369 1.31593 94.8695 3.94778C97.517 6.57963 98.8407 10.235 98.8407 14.9138C98.8407 18.2768 98.3995 21.7128 97.517 25.2219C96.6345 28.7311 95.5313 32.6057 94.2076 36.8459C93.0309 40.5013 91.9278 44.4491 90.8982 48.6893C89.8686 52.7833 88.9861 57.389 88.2507 62.5065C91.4865 63.0914 94.4282 64.3342 97.0757 66.235C100.312 61.9948 103.033 58.047 105.239 54.3916C107.445 50.7363 109.431 47.2272 111.196 43.8642C113.255 40.0627 115.241 36.5535 117.153 33.3368C119.065 30.1201 121.198 27.342 123.551 25.0026C126.934 21.6397 130.537 19.9582 134.362 19.9582C137.892 19.9582 141.201 21.4935 144.29 24.564C147.379 27.6345 148.923 30.9243 148.923 34.4334C148.923 38.235 147.232 41.8172 143.849 45.1802C141.495 47.5196 138.701 49.6397 135.465 51.5405C132.229 53.4413 128.699 55.4151 124.875 57.4621C121.492 59.2167 117.962 61.1906 114.285 63.3838C110.607 65.577 106.636 68.282 102.371 71.4987C104.283 74.1305 105.533 77.1279 106.121 80.4909C111.269 79.6136 115.903 78.6632 120.021 77.6397C124.286 76.6162 128.258 75.5196 131.935 74.3499C136.2 73.0339 140.098 71.9373 143.628 71.0601C147.158 70.1828 150.614 69.7441 153.997 69.7441C158.704 69.7441 162.381 71.06 165.029 73.6919C167.676 76.1775 169 79.6136 169 84C169 88.3864 167.676 91.8956 165.029 94.5274C162.381 97.0131 158.704 98.2559 153.997 98.2559C150.614 98.2559 147.158 97.8172 143.628 96.9399C140.098 96.0627 136.2 94.9661 131.935 93.6501C128.258 92.4804 124.286 91.3838 120.021 90.3603C115.903 89.3368 111.269 88.4595 106.121 87.7285C105.533 90.9452 104.283 93.9426 102.371 96.7206C106.636 99.7911 110.607 102.423 114.285 104.616C117.962 106.809 121.492 108.783 124.875 110.538C128.699 112.439 132.229 114.339 135.465 116.24C138.701 118.141 141.495 120.334 143.849 122.82C147.232 126.183 148.923 129.765 148.923 133.567C148.923 137.076 147.379 140.366 144.29 143.436C141.201 146.507 137.892 148.042 134.362 148.042C130.537 148.042 126.934 146.36 123.551 142.997C121.198 140.512 119.065 137.734 117.153 134.663C115.241 131.446 113.255 127.937 111.196 124.136C109.431 120.773 107.445 117.264 105.239 113.608C103.033 109.953 100.385 106.005 97.2964 101.765C94.5018 103.666 91.4865 104.909 88.2507 105.493C88.9861 110.611 89.8686 115.29 90.8982 119.53C91.9278 123.624 93.0309 127.499 94.2076 131.154C95.5313 135.248 96.6345 139.123 97.517 142.778C98.3995 146.287 98.8407 149.723 98.8407 153.086C98.8407 157.765 97.517 161.42 94.8695 164.052C92.369 166.684 88.9125 168 84.5 168C80.0875 168 76.5574 166.684 73.9099 164.052C71.4095 161.42 70.1593 157.765 70.1593 153.086C70.1593 149.723 70.6005 146.287 71.483 142.778C72.3655 139.123 73.4687 135.248 74.7924 131.154C75.9691 127.499 77.0722 123.624 78.1018 119.53C79.1314 115.29 80.0875 110.611 80.97 105.493C77.587 104.909 74.5718 103.666 71.9243 101.765C68.6884 106.005 65.9674 109.953 63.7611 113.608C61.5548 117.264 59.5692 120.773 57.8042 124.136C55.8921 127.937 53.98 131.446 52.0679 134.663C50.1558 137.734 47.9495 140.512 45.4491 142.997C42.0661 146.36 38.4626 148.042 34.6384 148.042Z" fill="#FFB700"/>
</svg>
