<svg width="561" height="561" viewBox="0 0 561 561" fill="none" xmlns="http://www.w3.org/2000/svg">
<g opacity="0.5">
<path d="M308.166 420.728L274.038 339.736L220.565 409.955L174.568 374.714L227.305 304.805L140.439 293.722L147.345 236.19L234.945 246.963L200.817 165.971L254.454 143.37L288.582 224.362L341.32 154.453L387.318 189.694L334.58 259.602L421.446 270.686L414.541 328.218L327.675 317.135L361.803 398.127L308.166 420.728Z" fill="#FFB700"/>
<path d="M242.241 473.918L198.757 459.92L250.896 295.192L85.2717 242.793L99.1065 198.605L264.92 250.413L318.825 85.2631L362.89 98.4661L309.59 264.783L474.633 317.977L460.988 361.573L295.364 309.174L242.241 473.918ZM178.959 369.976C170.872 374.166 162.687 375.61 154.402 374.308C146.117 373.006 139.219 367.037 133.708 356.4C128.197 345.764 127.299 336.686 131.014 329.167C134.595 321.389 140.429 315.405 148.515 311.215C156.863 306.89 165.246 305.508 173.666 307.069C181.951 308.371 188.848 314.341 194.359 324.977C199.87 335.614 200.768 344.692 197.053 352.21C193.338 359.729 187.307 365.651 178.959 369.976ZM356.05 426.307C349.007 429.956 342.528 431.502 336.615 430.946C331.097 430.514 326.085 428.504 321.579 424.916C317.333 421.192 313.799 416.606 310.977 411.158C308.154 405.71 306.513 400.308 306.054 394.951C305.722 389.2 306.971 383.946 309.8 379.19C312.757 374.038 317.756 369.638 324.8 365.989C331.843 362.34 338.321 360.793 344.234 361.35C350.013 361.646 355.025 363.656 359.271 367.38C363.643 370.709 367.24 375.098 370.063 380.546C372.885 385.994 374.463 391.593 374.795 397.344C375.388 402.96 374.14 408.214 371.049 413.106C368.093 418.257 363.093 422.658 356.05 426.307ZM236.089 194.765C229.046 198.414 222.635 200.09 216.856 199.793C211.204 199.102 206.124 196.962 201.618 193.374C197.373 189.65 193.839 185.064 191.016 179.616C188.193 174.168 186.553 168.766 186.094 163.409C185.761 157.658 187.01 152.404 189.84 147.648C192.796 142.496 197.795 138.096 204.839 134.447C211.882 130.798 218.36 129.251 224.274 129.808C230.052 130.104 235.064 132.114 239.31 135.838C243.682 139.167 247.279 143.556 250.102 149.004C252.924 154.452 254.502 160.051 254.834 165.802C255.428 171.418 254.246 176.802 251.29 181.953C248.199 186.845 243.132 191.116 236.089 194.765ZM411.781 249.352C403.694 253.542 395.508 254.986 387.223 253.684C378.938 252.382 372.04 246.413 366.53 235.776C361.019 225.14 360.121 216.062 363.836 208.543C367.416 200.765 373.25 194.781 381.337 190.591C389.684 186.266 398.068 184.885 406.487 186.446C414.772 187.748 421.67 193.717 427.181 204.354C432.691 214.99 433.589 224.068 429.874 231.587C426.159 239.106 420.128 245.027 411.781 249.352Z" fill="#6C35A7"/>
</g>
</svg>
