<svg width="166" height="164" viewBox="0 0 166 164" fill="none" xmlns="http://www.w3.org/2000/svg">
<path d="M76.1593 164L79.3517 99.1209L57.4615 160.396L44.6923 155.44L72.967 96.4176L29.1868 145.077L19.1538 135.165L68.4066 91.9121L8.66483 119.846L3.64835 107.231L65.6703 85.6044L0 88.7582V75.2418L65.6703 78.8462L3.64835 56.7692L8.66483 44.6044L68.4066 72.5385L19.1538 28.8352L29.1868 19.3736L72.967 67.5824L44.6923 9.01098L57.4615 3.60439L79.3517 65.3297L76.1593 0H89.8407L86.1923 64.8791L108.538 3.60439L120.852 9.01098L92.5769 67.5824L136.813 19.3736L146.39 28.8352L97.5934 72.5385L156.879 44.6044L162.352 56.7692L99.8736 78.8462L166 75.2418V88.7582L99.8736 85.6044L162.352 107.231L156.879 119.846L97.5934 91.9121L146.39 135.165L136.813 145.077L92.5769 96.4176L120.852 155.44L108.538 160.396L86.1923 99.1209L89.8407 164H76.1593Z" fill="#FFB700"/>
</svg>
