<svg width="135" height="135" viewBox="0 0 135 135" fill="none" xmlns="http://www.w3.org/2000/svg">
<path d="M67.5 135C63.0469 135 58.9453 133.887 55.1953 131.66C51.5625 129.551 48.6328 126.68 46.4063 123.047C44.2969 119.297 43.2422 115.195 43.2422 110.742C43.2422 105.117 44.5312 100.43 47.1094 96.6797C49.6875 92.9297 53.6719 88.5352 59.0625 83.4961C63.0469 79.8633 65.0391 76.4063 65.0391 73.125V69.9609H61.875C58.2422 69.9609 53.2617 73.5937 46.9336 80.8594C40.7227 88.125 33.1641 91.7578 24.2578 91.7578C19.8047 91.7578 15.7031 90.7031 11.9531 88.5937C8.32031 86.3672 5.39063 83.4375 3.16406 79.8047C1.05469 76.0547 0 71.9531 0 67.5C0 63.0469 1.05469 59.0039 3.16406 55.3711C5.39063 51.6211 8.32031 48.6914 11.9531 46.582C15.7031 44.3555 19.8047 43.2422 24.2578 43.2422C33.0469 43.2422 40.5469 46.8164 46.7578 53.9648C52.9687 61.1133 58.0078 64.6875 61.875 64.6875H65.0391V61.875C65.0391 58.5937 63.0469 55.1367 59.0625 51.5039L55.0195 47.8125C52.0898 45.1172 49.3945 41.8945 46.9336 38.1445C44.4727 34.2773 43.2422 29.6484 43.2422 24.2578C43.2422 19.8047 44.2969 15.7617 46.4063 12.1289C48.6328 8.37891 51.5625 5.44922 55.1953 3.33984C58.9453 1.11328 63.0469 0 67.5 0C71.9531 0 75.9961 1.11328 79.6289 3.33984C83.3789 5.5664 86.3086 8.49609 88.418 12.1289C90.6445 15.7617 91.7578 19.8047 91.7578 24.2578C91.7578 33.0469 88.1836 40.5469 81.0352 46.7578C73.8867 52.9687 70.3125 58.0078 70.3125 61.875V64.6875H73.125C77.1094 64.6875 82.1484 61.1133 88.2422 53.9648C94.2187 46.8164 101.719 43.2422 110.742 43.2422C115.195 43.2422 119.238 44.3555 122.871 46.582C126.621 48.6914 129.551 51.5625 131.66 55.1953C133.887 58.8281 135 62.9297 135 67.5C135 71.9531 133.887 76.0547 131.66 79.8047C129.551 83.4375 126.621 86.3672 122.871 88.5937C119.238 90.7031 115.195 91.7578 110.742 91.7578C105.234 91.7578 100.488 90.4102 96.5039 87.7148C92.6367 85.0195 88.3008 81.0938 83.4961 75.9375C79.8633 71.9531 76.4062 69.9609 73.125 69.9609H70.3125V73.125C70.3125 77.4609 73.8867 82.5 81.0352 88.2422C88.1836 93.9844 91.7578 101.484 91.7578 110.742C91.7578 115.195 90.6445 119.297 88.418 123.047C86.3086 126.68 83.4375 129.551 79.8047 131.66C76.1719 133.887 72.0703 135 67.5 135Z" fill="#380075"/>
</svg>
