<svg width="215" height="201" viewBox="0 0 215 201" fill="none" xmlns="http://www.w3.org/2000/svg">
<path d="M53.2393 74.4317C58.8961 70.5646 64.6224 68.4399 70.4182 68.0576C76.2627 67.4183 83.0905 67.5612 90.9016 68.4861C96.6071 69.2844 101.204 69.6098 104.693 69.4623C108.334 69.2103 111.531 68.1437 114.283 66.2624C118.411 63.4404 121.066 59.6119 122.247 54.7768C123.477 49.6848 123.56 42.9155 122.497 34.4688L148.776 29.5927C151.452 44.992 151.716 58.0124 149.569 68.6539C147.421 79.2954 141.608 87.8562 132.129 94.3363C126.625 98.0989 121.027 100.248 115.336 100.782C109.797 101.213 102.917 100.993 94.6959 100.125C88.6847 99.5359 83.8583 99.3673 80.2168 99.6193C76.7282 99.7667 73.6844 100.729 71.0853 102.506C66.9574 105.328 64.2784 109.285 63.0483 114.377C61.9712 119.364 61.9121 126.005 62.8711 134.299L36.4355 138.947C34.2256 123.9 34.0658 111.032 35.9561 100.343C37.9992 89.5488 43.7603 80.9118 53.2393 74.4317Z" fill="#380075"/>
<path d="M94.1726 122.163C99.8294 118.296 105.556 116.171 111.352 115.789C117.196 115.15 124.024 115.293 131.835 116.218C137.54 117.016 142.137 117.341 145.626 117.194C149.268 116.942 152.464 115.875 155.216 113.994C159.344 111.172 161.999 107.343 163.18 102.508C164.41 97.4164 164.494 90.647 163.43 82.2004L189.71 77.3243C192.385 92.7236 192.649 105.744 190.502 116.385C188.354 127.027 182.541 135.588 173.062 142.068C167.558 145.83 161.961 147.979 156.269 148.514C150.73 148.944 143.85 148.725 135.629 147.857C129.618 147.267 124.792 147.099 121.15 147.351C117.662 147.498 114.618 148.46 112.019 150.237C107.891 153.059 105.212 157.016 103.982 162.108C102.904 167.096 102.845 173.737 103.804 182.031L77.3688 186.678C75.159 171.632 74.9991 158.764 76.8894 148.074C78.9325 137.28 84.6936 128.643 94.1726 122.163Z" fill="#380075"/>
<path d="M41.5089 58.7911C47.1657 54.9239 52.892 52.7992 58.6878 52.417C64.5323 51.7777 71.36 51.9206 79.1712 52.8455C84.8766 53.6437 89.4737 53.9691 92.9623 53.8217C96.6038 53.5697 99.8005 52.503 102.552 50.6217C106.68 47.7998 109.335 43.9713 110.517 39.1362C111.747 34.0442 111.83 27.2749 110.767 18.8282L137.046 13.9521C139.721 29.3514 139.985 42.3717 137.838 53.0133C135.691 63.6548 129.877 72.2156 120.398 78.6957C114.895 82.4583 109.297 84.607 103.605 85.1417C98.0666 85.5719 91.1867 85.3529 82.9655 84.4845C76.9543 83.8953 72.1279 83.7267 68.4864 83.9786C64.9978 84.1261 61.954 85.0882 59.3549 86.865C55.2269 89.687 52.5479 93.644 51.3179 98.736C50.2407 103.724 50.1816 110.364 51.1406 118.659L24.7051 123.306C22.4952 108.26 22.3354 95.3917 24.2256 84.7022C26.2688 73.9082 32.0299 65.2712 41.5089 58.7911Z" fill="#FFB700"/>
<path d="M82.4422 106.523C88.099 102.656 93.8253 100.531 99.6211 100.149C105.466 99.5093 112.293 99.6521 120.105 100.577C125.81 101.375 130.407 101.701 133.896 101.553C137.537 101.301 140.734 100.235 143.486 98.3533C147.614 95.5313 150.268 91.7028 151.45 86.8678C152.68 81.7758 152.763 75.0064 151.7 66.5598L177.979 61.6837C180.655 77.0829 180.919 90.1033 178.771 100.745C176.624 111.386 170.811 119.947 161.332 126.427C155.828 130.19 150.23 132.339 144.539 132.873C139 133.304 132.12 133.084 123.899 132.216C117.888 131.627 113.061 131.458 109.42 131.71C105.931 131.858 102.887 132.82 100.288 134.597C96.1603 137.419 93.4813 141.376 92.2512 146.468C91.1741 151.455 91.115 158.096 92.074 166.39L65.6384 171.037C63.4285 155.991 63.2687 143.123 65.159 132.434C67.2021 121.64 72.9632 113.003 82.4422 106.523Z" fill="#FFB700"/>
</svg>
